<svg xmlns="http://www.w3.org/2000/svg" width="63" height="63" viewBox="0 0 63 63">
  <metadata><?xpacket begin="﻿" id="W5M0MpCehiHzreSzNTczkc9d"?>
<x:xmpmeta xmlns:x="adobe:ns:meta/" x:xmptk="Adobe XMP Core 5.6-c138 79.159824, 2016/09/14-01:09:01        ">
   <rdf:RDF xmlns:rdf="http://www.w3.org/1999/02/22-rdf-syntax-ns#">
      <rdf:Description rdf:about=""/>
   </rdf:RDF>
</x:xmpmeta>
                                                                                                    
                                                                                                    
                                                                                                    
                                                                                                    
                                                                                                    
                                                                                                    
                                                                                                    
                                                                                                    
                                                                                                    
                                                                                                    
                                                                                                    
                                                                                                    
                                                                                                    
                                                                                                    
                                                                                                    
                                                                                                    
                                                                                                    
                                                                                                    
                                                                                                    
                                                                                                    
                           
<?xpacket end="w"?></metadata>
<defs>
    <style>
      .cls-1 {
        fill: #92c8ed;
        fill-rule: evenodd;
      }
    </style>
  </defs>
  <path id="icon" class="cls-1" d="M283.189,649.922V703.57a4.422,4.422,0,0,1-4.4,4.429h-35.71a4.436,4.436,0,0,1-4.43-4.429V649.921a1.473,1.473,0,0,1,1.607-1.471h6.281v-1.973a1.477,1.477,0,0,1,2.953,0v1.973h5.661v-1.974a1.477,1.477,0,0,1,2.953,0v1.974h5.66v-1.974a1.477,1.477,0,0,1,2.953,0v1.974h5.661v-1.974a1.477,1.477,0,0,1,2.953,0v1.974h6.384a1.476,1.476,0,0,1,1.477,1.471h0Zm-16.475,1.471v2.351a2.708,2.708,0,1,1-2.953,0v-2.351H258.1v2.352a2.708,2.708,0,1,1-2.953,0v-2.352h-5.661v2.352a2.708,2.708,0,1,1-2.953,0v-2.352H241.6V703.57a1.482,1.482,0,0,0,1.477,1.476h35.71a1.45,1.45,0,0,0,1.45-1.476V651.393h-4.908v2.351a2.708,2.708,0,1,1-2.953,0v-2.351h-5.661Zm-17.759,46.025a1.477,1.477,0,1,1,0-2.953h23.268a1.477,1.477,0,0,1,0,2.953H248.955Zm1.07-7.532-2.719-2.066c-1.634-1.241.108-2.338,0.984-1.845l1.969,1.107,2.215-3.691c1.114-1.858,2.521-.595,1.968.487l-2.951,5.772a1,1,0,0,1-1.466.236h0Zm8.775-1.327a1.477,1.477,0,1,1,0-2.953h13.423a1.477,1.477,0,0,1,0,2.953H258.8Zm-8.775-7.532-2.719-2.066c-1.634-1.241.108-2.339,0.984-1.846l1.969,1.108,2.215-3.692c1.114-1.857,2.521-.595,1.968.488l-2.951,5.771a1,1,0,0,1-1.466.237h0ZM258.8,679.7a1.477,1.477,0,1,1,0-2.953h13.423a1.477,1.477,0,0,1,0,2.953H258.8Zm-8.775-7.532-2.719-2.065c-1.634-1.242.108-2.339,0.984-1.846l1.969,1.107,2.215-3.691c1.114-1.858,2.521-.6,1.968.487l-2.951,5.772a1,1,0,0,1-1.466.236h0Zm8.775-1.327a1.477,1.477,0,1,1,0-2.953h13.423a1.477,1.477,0,0,1,0,2.953H258.8Zm-25.259,25.075h0l-1.31,4.992a0.623,0.623,0,0,1-.522.4,0.638,0.638,0,0,1-.628-0.2l-2.857-4.278a5.7,5.7,0,0,1,5.317-.911h0Zm1.054-3.082-6.41-36.354-2.238-1.355-4.12.727-1.638,2.049,6.408,36.343c0.323-1.189.757-1.833,1.726-1.554a3.018,3.018,0,0,1,3.877-.683,1.565,1.565,0,0,1,2.4.827h0Z" transform="translate(-220.188 -645)"/>
</svg>
