<svg xmlns="http://www.w3.org/2000/svg" width="55.406" height="77.937" viewBox="0 0 55.406 77.937">
  <metadata><?xpacket begin="﻿" id="W5M0MpCehiHzreSzNTczkc9d"?>
<x:xmpmeta xmlns:x="adobe:ns:meta/" x:xmptk="Adobe XMP Core 5.6-c138 79.159824, 2016/09/14-01:09:01        ">
   <rdf:RDF xmlns:rdf="http://www.w3.org/1999/02/22-rdf-syntax-ns#">
      <rdf:Description rdf:about=""/>
   </rdf:RDF>
</x:xmpmeta>
                                                                                                    
                                                                                                    
                                                                                                    
                                                                                                    
                                                                                                    
                                                                                                    
                                                                                                    
                                                                                                    
                                                                                                    
                                                                                                    
                                                                                                    
                                                                                                    
                                                                                                    
                                                                                                    
                                                                                                    
                                                                                                    
                                                                                                    
                                                                                                    
                                                                                                    
                                                                                                    
                           
<?xpacket end="w"?></metadata>
<defs>
    <style>
      .cls-1 {
        fill: #92c8ed;
        fill-rule: evenodd;
      }
    </style>
  </defs>
  <path id="icon" class="cls-1" d="M638.071,684.936a2.437,2.437,0,1,0,2.985,1.723,2.431,2.431,0,0,0-2.985-1.723h0Zm1.938-2.335,8.052-13.945a1.212,1.212,0,1,1,2.1,1.208l-8.054,13.95a4.869,4.869,0,1,1-2.1-1.213h0ZM638.7,714.992a27.7,27.7,0,0,1-19.818-47.058l-1.457-1.736a1.222,1.222,0,0,1,.15-1.716l2.332-1.957a1.223,1.223,0,0,1,1.715.15l1.456,1.736a27.547,27.547,0,0,1,13.8-4.764v-0.82a10.954,10.954,0,1,1,3.653,0v0.82a27.547,27.547,0,0,1,13.795,4.764l1.456-1.736a1.223,1.223,0,0,1,1.715-.15l2.332,1.957a1.222,1.222,0,0,1,.15,1.716l-1.457,1.736A27.7,27.7,0,0,1,638.7,714.992h0Zm-1.826-58.644V653.5h-2.132a1.827,1.827,0,0,1-1.826-1.827v-1.217a1.827,1.827,0,0,1,1.826-1.827h7.915a1.827,1.827,0,0,1,1.827,1.827v1.217a1.827,1.827,0,0,1-1.827,1.827h-2.13v2.848a8.518,8.518,0,1,0-3.653,0h0Zm1.826,44.337a13.395,13.395,0,1,1,2.665-26.524l-1.3,2.254a11.163,11.163,0,0,0-1.364-.084,10.957,10.957,0,1,0,8.736,4.341l1.3-2.252A13.4,13.4,0,0,1,638.7,700.685h0Zm-20.194-.33,2.876-1.66-1.218-2.109-2.877,1.661a23.915,23.915,0,0,1-2.606-9.739H618v-2.435h-3.318a23.915,23.915,0,0,1,2.606-9.74l2.877,1.661,1.218-2.109-2.876-1.66a24.16,24.16,0,0,1,7.129-7.129l1.66,2.876,2.109-1.218-1.661-2.877a23.915,23.915,0,0,1,9.739-2.606v3.318h2.436v-3.318A24.075,24.075,0,0,1,658.9,674.225l-2.876,1.66,1.218,2.109,2.878-1.661a23.93,23.93,0,0,1,2.605,9.74H659.4v2.435h3.318a23.93,23.93,0,0,1-2.605,9.739l-2.878-1.661L656.02,698.7l2.876,1.66a24.192,24.192,0,0,1-7.129,7.129l-1.66-2.875L648,705.826l1.661,2.878a23.93,23.93,0,0,1-9.739,2.605v-3.318h-2.436v3.318a23.93,23.93,0,0,1-9.739-2.605l1.661-2.878-2.109-1.217-1.66,2.875a24.192,24.192,0,0,1-7.129-7.129h0Z" transform="translate(-611 -637.063)"/>
</svg>
