<svg xmlns="http://www.w3.org/2000/svg" width="66.505" height="66.5" viewBox="0 0 66.505 66.5">
  <metadata><?xpacket begin="﻿" id="W5M0MpCehiHzreSzNTczkc9d"?>
<x:xmpmeta xmlns:x="adobe:ns:meta/" x:xmptk="Adobe XMP Core 5.6-c138 79.159824, 2016/09/14-01:09:01        ">
   <rdf:RDF xmlns:rdf="http://www.w3.org/1999/02/22-rdf-syntax-ns#">
      <rdf:Description rdf:about=""/>
   </rdf:RDF>
</x:xmpmeta>
                                                                                                    
                                                                                                    
                                                                                                    
                                                                                                    
                                                                                                    
                                                                                                    
                                                                                                    
                                                                                                    
                                                                                                    
                                                                                                    
                                                                                                    
                                                                                                    
                                                                                                    
                                                                                                    
                                                                                                    
                                                                                                    
                                                                                                    
                                                                                                    
                                                                                                    
                                                                                                    
                           
<?xpacket end="w"?></metadata>
<defs>
    <style>
      .cls-1 {
        fill: #92c8ed;
        fill-rule: evenodd;
      }
    </style>
  </defs>
  <path id="icon" class="cls-1" d="M1054.99,653.874l-0.65,1.594-1.08-.4,0.65-1.591a1.141,1.141,0,1,0-2.14-.791l-7.87,19.066a1.141,1.141,0,1,0,2.14.791l5.8-14.034,1.1,0.408-6.5,15.912a1.183,1.183,0,0,0,.93,1.57l-3.2,8.741a87.022,87.022,0,0,0-4.59,20.9c-0.17,1.517,1.3,2.039,2.15.788a87.729,87.729,0,0,0,9.93-18.919c0.98-2.673,2.02-5.535,3.1-8.486a1.192,1.192,0,0,0,1.1.054,1.029,1.029,0,0,0,.63-0.618l7.06-21.818C1064.48,654.169,1056.12,651.083,1054.99,653.874Zm-31.77,4.4c3.71-1.408,4.52-8.888,2.4-12.755-1.08-1.982-3.09-2.777-5.01-1.358C1016.06,647.533,1017.99,660.258,1023.22,658.273Zm-2.01-10.8c0.6-1.562,1.99-2.4,2.64-.117,0.8,2.782.39,8.573-1.48,8.484C1020.19,655.741,1020.12,650.326,1021.21,647.476Zm-8.24,6.615c0.4-.075.74-0.134,1.03-0.182,0.07,0.8-.16,4.892.63,5a4.527,4.527,0,0,0,1.62-.295,32.323,32.323,0,0,0,.1-5.351,8.148,8.148,0,0,0,1.42-.762,0.991,0.991,0,0,0,.21-0.892,0.6,0.6,0,0,0-.52-0.457,10.246,10.246,0,0,0-1.2.043c-0.1-2.2-.2-4.568-0.13-6.043a0.779,0.779,0,0,0,.04-0.209,1.269,1.269,0,0,0-.21-1.593,1.242,1.242,0,0,0-1.77.055c-3.17,3.658-4.73,5.134-6.65,9.675C1009.41,654.942,1009.2,654.8,1012.97,654.091Zm0.89-6.418c-0.04,1.176-.05,2.357-0.02,3.534-0.86.133-1.7,0.391-2.98,0.666A32.079,32.079,0,0,1,1013.86,647.673Zm-14.784,41.061c5.774-.222,31.224-0.036,36.514-0.521a1.091,1.091,0,1,0,.05-2.14c-5.21.452-31,.155-35.49,0.83a1.367,1.367,0,0,0-1.656.47A0.951,0.951,0,0,0,999.076,688.734Zm9.694-12.063c-0.71,1.7-.77,3.316,1.71,3.116,1.99-.16,3.99-0.237,5.99-0.341a1.01,1.01,0,0,0,1.2-1.044,1.477,1.477,0,0,0-1.26-1.374c-1.77.028-3.51,0.112-5.26,0.236,1.02-1.958,3.48-4.607,3.97-5.64,3.59-7.5-4.46-10.5-7.2-4.3a1.411,1.411,0,0,0,.84,1.629,1.066,1.066,0,0,0,1.53-.571,2.722,2.722,0,0,1,2.58-1.935c0.95,0.087,1.53,1.769.1,3.96C1011.7,672.354,1009.95,673.8,1008.77,676.671Zm10.13,27.949a1.232,1.232,0,0,0-1.75-.042,1.261,1.261,0,0,0-.04,1.764c8.8,6.394,12.4-6.871,5.53-7.877a21.957,21.957,0,0,0,1.8-2.723c1.61-2,.86-1.713-3.53-1.708-0.65,0-3.16-.074-3.2.646a1.285,1.285,0,0,0,1.22,1.347c0.74,0.027,1.66.033,2.58,0.046a33.186,33.186,0,0,1-2.55,3.308c-0.69.768-.2,1.639,1.54,1.178a2.7,2.7,0,0,1,3.24,3.994C1022.99,705.833,1021.17,706.417,1018.9,704.62Zm11.16,1.99c-0.64-.051-0.85-0.284-1.28-1.114-0.36-.694-1.55-0.255-1.3.865,0.16,0.7.94,2.48,2.4,2.617,6.64,0.623,9.28-17.3.36-15.786-3.52.6-4.43,5.082-3.05,7.694a4.027,4.027,0,0,0,6.27.688C1032.92,704.36,1031.56,706.728,1030.06,706.61Zm-1.28-8.494a2.873,2.873,0,0,1,1.77-2.476c1.74-.592,2.51.335,2.75,1.911C1033.71,700.358,1028.41,701.734,1028.78,698.116Zm-16.59,9.282a1.237,1.237,0,1,0,2.47.144c0.05-1.237-.21-6.968-0.15-10.291,0.05-2.348-.1-3.52-0.8-3.834-0.53-.237-1.21.572-2.37,1.917a26.8,26.8,0,0,0-2.34,2.78,1.288,1.288,0,0,0,.57,1.72,1.274,1.274,0,0,0,1.71-.58l0.94-.877C1012.24,701.04,1012.17,706.083,1012.19,707.4Zm19.47-43.142c-3.63,1.316-3.52,5.637-1.1,8.1-4.21,5.459-.77,7.782,1.86,7.438,3.47-.453,5.48-3.439,1.49-7.783C1038.98,665.274,1034.86,663.1,1031.66,664.256Zm0.54,13.5c-0.88,0-2.5-1.731.2-4.446C1035.11,675.959,1033.18,677.756,1032.2,677.761Zm0.01-7.024c-1.38-1.5-1.73-4.275.23-4.938C1033.67,665.386,1035.2,667.359,1032.21,670.737Zm-29.65,33.441c0.4-.076.73-0.135,1.03-0.183,0.07,0.8-.16,4.892.62,5a4.447,4.447,0,0,0,1.62-.295,30.815,30.815,0,0,0,.11-5.351,8.148,8.148,0,0,0,1.42-.762,0.991,0.991,0,0,0,.21-0.892,0.6,0.6,0,0,0-.52-0.457,10.032,10.032,0,0,0-1.2.043c-0.1-2.2-.2-4.568-0.13-6.043a1.539,1.539,0,0,0,.04-0.209,1.27,1.27,0,0,0-.21-1.593,1.254,1.254,0,0,0-1.78.056c-3.17,3.657-4.724,5.133-6.647,9.674C999,705.027,998.786,704.89,1002.56,704.178Zm0.89-6.419c-0.04,1.176-.06,2.357-0.02,3.534-0.86.133-1.71,0.391-2.98,0.666A31.168,31.168,0,0,1,1003.45,697.759Zm34.27-54a1.2,1.2,0,0,0-1.26-1.252c-2.73.307-5.57,0.525-8.38,0.619a1.21,1.21,0,0,0-.88,1.578,1.34,1.34,0,0,0,1.55.864c1.85-.188,3.54-0.221,5.26-0.357-1.29,3.636-2.88,8.282-3.24,11.4a2.5,2.5,0,0,0-.04.945c0.29,1.008,2.06,1.673,2.47-.643,0.71-3.963,2.46-7.828,3.55-11.9A1.292,1.292,0,0,0,1037.72,643.759Zm-35.43,33.8a5.143,5.143,0,0,1-2.544-.831c-1.385-.841-2.8,1.088-1.445,1.941a6.623,6.623,0,0,0,2.4,1.052c4.5,0.993,6.31-2.275,6.27-4.949-0.05-2.826-2.17-4.891-5.5-3.428,0.08-1.006.27-3.17,0.33-4.136,1.67-.032,2.28.015,3.83-0.027a1.113,1.113,0,0,0,1.26-1.091,1.277,1.277,0,0,0-1.26-1.3c-1.41.038-3.8-.068-5.14,0.028a1.272,1.272,0,0,0-.989,1.27,64.55,64.55,0,0,0-.464,7.133,0.914,0.914,0,0,0,.88.751,2.344,2.344,0,0,0,1.543-.546c1.24-.811,2.88-0.933,3.21,1.083C1005.03,676.655,1003.77,677.515,1002.29,677.558Zm21.14,2.208c3.53-.6,4.44-5.094,3.06-7.712a4.033,4.033,0,0,0-6.28-.69c0.54-2.791,1.9-5.173,3.41-5.045a0.992,0.992,0,0,0,1.19-.96,1.348,1.348,0,0,0-1.01-1.414C1017.15,663.368,1014.52,681.285,1023.43,679.766Zm1.46-4.936a2.87,2.87,0,0,1-1.76,2.482c-1.75.593-2.77-.336-3.01-1.915C1019.71,672.583,1025.27,671.2,1024.89,674.83Zm19.24-25.486s-5.04.034-5.51,0.88c-0.32.583-.08,0.852,0.52,1.186,1.75,0.034,2.72.063,3.36,0.078l1.8-.046c0.58-.027,1.41-0.035,2.79-0.094,1.27,0.113,2.35-1.879.15-2.074C1045.6,649.336,1044.72,649.389,1044.13,649.344Zm-39.57,1.719c-0.54,2.785-1.9,5.153-3.4,5.035-0.64-.051-0.85-0.283-1.279-1.113-0.359-.694-1.554-0.256-1.3.864,0.157,0.7.946,2.481,2.4,2.617,6.64,0.623,9.28-17.3.36-15.786-3.523.6-4.434,5.083-3.053,7.7A4.03,4.03,0,0,0,1004.56,651.063Zm-4.676-3.458a2.868,2.868,0,0,1,1.766-2.477c1.74-.592,2.51.335,2.75,1.911C1004.81,649.846,999.507,651.223,999.884,647.605Z" transform="translate(-997.125 -642.5)"/>
</svg>
