<svg xmlns="http://www.w3.org/2000/svg" width="28" height="27" viewBox="0 0 28 27">
  <path fill="#818181" fill-rule="evenodd" d="M251.103937,663 C243.643411,663 237.603937,669.039474 237.603937,676.5 C237.603937,683.960526 243.643411,690 251.103937,690 C258.564464,690 264.603937,683.960526 264.603937,676.5 C264.603937,669.039474 258.564464,663 251.103937,663 Z M251.103937,688.578947 C244.42499,688.578947 239.02499,683.178947 239.02499,676.5 C239.02499,669.821053 244.42499,664.421053 251.103937,664.421053 C257.782885,664.421053 263.182885,669.821053 263.182885,676.5 C263.182885,683.178947 257.782885,688.578947 251.103937,688.578947 Z M259.239464,671.917105 C258.955253,671.632895 258.528937,671.632895 258.244727,671.917105 L249.185516,681.011842 L245.384201,677.210526 C245.09999,676.926316 244.638148,676.926316 244.389464,677.210526 C244.105253,677.494737 244.105253,677.956579 244.389464,678.205263 L248.688148,682.503947 C248.830253,682.646053 249.007885,682.717105 249.185516,682.717105 C249.363148,682.717105 249.54078,682.646053 249.682885,682.503947 L259.239464,672.911842 C259.523674,672.627632 259.523674,672.201316 259.239464,671.917105 Z" transform="translate(-237 -663)"/>
</svg>
