<svg xmlns="http://www.w3.org/2000/svg" width="72.842" height="73.906" viewBox="0 0 72.842 73.906">
  <metadata><?xpacket begin="﻿" id="W5M0MpCehiHzreSzNTczkc9d"?>
<x:xmpmeta xmlns:x="adobe:ns:meta/" x:xmptk="Adobe XMP Core 5.6-c138 79.159824, 2016/09/14-01:09:01        ">
   <rdf:RDF xmlns:rdf="http://www.w3.org/1999/02/22-rdf-syntax-ns#">
      <rdf:Description rdf:about=""/>
   </rdf:RDF>
</x:xmpmeta>
                                                                                                    
                                                                                                    
                                                                                                    
                                                                                                    
                                                                                                    
                                                                                                    
                                                                                                    
                                                                                                    
                                                                                                    
                                                                                                    
                                                                                                    
                                                                                                    
                                                                                                    
                                                                                                    
                                                                                                    
                                                                                                    
                                                                                                    
                                                                                                    
                                                                                                    
                                                                                                    
                           
<?xpacket end="w"?></metadata>
<defs>
    <style>
      .cls-1 {
        fill: #75b25f;
        fill-rule: evenodd;
      }
    </style>
  </defs>
  <path class="cls-1" d="M1059.24,304.591a1.168,1.168,0,0,1-1.48-.7,2.162,2.162,0,0,0-.08-0.239c-3.04-3.1-11.92-2.888-15.35-.523l0.03,0.18a1.152,1.152,0,1,1-2.27.4c-0.03-.143-0.05-0.285-0.08-0.427-3.29-2.59-11.79-2.522-15.25-.1V326.1c-0.29.323-.74,0.66-1.09,1.01-0.36-.343-0.73-0.673-1.1-0.99l-0.12-.106V303.2c-3.18-2.438-11.91-2.526-15.25.041q-0.045.228-.09,0.459a1.152,1.152,0,1,1-2.27-.4l0.03-.16c-3.4-2.383-12.292-2.607-15.346.5-0.029.079-.058,0.158-0.086,0.237a1.153,1.153,0,1,1-2.174-.767c5.33-14.959,19.306-22.245,35.186-22.716v-1.623a1.155,1.155,0,1,1,2.31,0V280.4c15.88,0.471,29.85,7.757,35.18,22.716A1.153,1.153,0,0,1,1059.24,304.591Zm-51.7,16.634c-0.71-2.021-2.34-6.152-3.75-7.234,0.22-1.557,1.25-3.559,7.04-3.437,1.99,0.043,1.14,1.622,2.78,1.348,0.07-.013,4.48-1.065,5.83,1.828-2.34.775-3.76,5.185-4.35,7.5h-7.55Zm24.77,0c-0.7-2.021-2.33-6.152-3.74-7.234,0.22-1.557,1.25-3.559,7.03-3.437,1.99,0.043,1.14,1.622,2.78,1.348,0.08-.013,4.49-1.065,5.83,1.828-2.33.775-3.76,5.185-4.35,7.5h-7.55Zm-34.139,25.992c-0.748-3.312-.317-10.066,0-13.36,0.437-4.534,7.449-8.012,9.369-10.322h7.55c1.23,1.926,6.58,4.57,8.6,8.1,1.94-3.462,7.03-6.186,8.62-8.1h7.55c1.48,2.31,8.91,5.65,9.37,10.322,0.32,3.294.75,10.015,0,13.326-0.25,1.076,1.41,3,.55,4.023-0.19.229-1.53,0.336-3.66,0.336H1025c-0.61,0-1.13-.019-1.56-0.049-0.56.033-1.27,0.049-2.1,0.049h-21.12a8.307,8.307,0,0,1-2.8-.269C996.523,350.288,998.414,348.292,998.171,347.217Zm33.189-3.285a5.326,5.326,0,0,0,3.31,1.337,0.606,0.606,0,0,1,.56.608l0.01,0.549a0.622,0.622,0,0,0,.63.611l0.83-.008a0.63,0.63,0,0,0,.62-0.624l-0.01-.536a0.615,0.615,0,0,1,.55-0.619,5.986,5.986,0,0,0,3.4-1.309,4.044,4.044,0,0,0,1.37-3.344,3.753,3.753,0,0,0-1.27-2.963,7.977,7.977,0,0,0-2.95-1.432c-1.04-.312-3.55-0.709-4.25-1.241a1.22,1.22,0,0,1,.01-1.874c0.7-.538,3.48-0.548,4.09.153a1.949,1.949,0,0,1,.4.872,0.61,0.61,0,0,0,.61.491l2.38-.025a0.624,0.624,0,0,0,.61-0.719,4.161,4.161,0,0,0-1.38-2.55,4.829,4.829,0,0,0-2.95-1.174,0.614,0.614,0,0,1-.57-0.608v-0.1a0.629,0.629,0,0,0-.63-0.611l-0.91.01a0.613,0.613,0,0,0-.61.623v0.12a0.62,0.62,0,0,1-.57.621,5.421,5.421,0,0,0-3.18,1.262,3.856,3.856,0,0,0-1.46,3.191,3.557,3.557,0,0,0,1.28,2.833c2.13,1.795,5.74,1.509,7.18,2.663a1.294,1.294,0,0,1-.05,1.987c-0.72.508-3.56,0.718-4.28-.149a2.281,2.281,0,0,1-.42-1.149,0.621,0.621,0,0,0-.62-0.524l-2.59.027a0.619,0.619,0,0,0-.61.692A4.45,4.45,0,0,0,1031.36,343.932Zm-24.78,0a5.35,5.35,0,0,0,3.31,1.337,0.615,0.615,0,0,1,.57.608l0.01,0.549a0.614,0.614,0,0,0,.62.611l0.84-.008a0.615,0.615,0,0,0,.61-0.624v-0.536a0.607,0.607,0,0,1,.55-0.619,6.016,6.016,0,0,0,3.4-1.309,4.074,4.074,0,0,0,1.37-3.344,3.785,3.785,0,0,0-1.27-2.963,8.058,8.058,0,0,0-2.95-1.432c-1.05-.312-3.55-0.709-4.26-1.241a1.22,1.22,0,0,1,.02-1.874c0.7-.538,3.48-0.548,4.09.153a1.84,1.84,0,0,1,.39.872,0.621,0.621,0,0,0,.62.491l2.38-.025a0.624,0.624,0,0,0,.61-0.719,4.124,4.124,0,0,0-1.39-2.55,4.78,4.78,0,0,0-2.95-1.174,0.621,0.621,0,0,1-.57-0.608v-0.1a0.617,0.617,0,0,0-.63-0.611l-0.9.01a0.621,0.621,0,0,0-.62.623v0.12a0.612,0.612,0,0,1-.56.621,5.451,5.451,0,0,0-3.19,1.262,3.913,3.913,0,0,0-1.46,3.191,3.588,3.588,0,0,0,1.28,2.833c2.14,1.795,5.75,1.509,7.18,2.663a1.281,1.281,0,0,1-.05,1.987c-0.72.508-3.56,0.718-4.27-.149a2.376,2.376,0,0,1-.43-1.149,0.613,0.613,0,0,0-.62-0.524l-2.58.027a0.619,0.619,0,0,0-.61.692A4.485,4.485,0,0,0,1006.58,343.932Z" transform="translate(-987.188 -277.625)"/>
</svg>
