<svg id="icon" xmlns="http://www.w3.org/2000/svg" width="66" height="66" viewBox="0 0 66 66">
  <metadata><?xpacket begin="﻿" id="W5M0MpCehiHzreSzNTczkc9d"?>
<x:xmpmeta xmlns:x="adobe:ns:meta/" x:xmptk="Adobe XMP Core 5.6-c138 79.159824, 2016/09/14-01:09:01        ">
   <rdf:RDF xmlns:rdf="http://www.w3.org/1999/02/22-rdf-syntax-ns#">
      <rdf:Description rdf:about=""/>
   </rdf:RDF>
</x:xmpmeta>
                                                                                                    
                                                                                                    
                                                                                                    
                                                                                                    
                                                                                                    
                                                                                                    
                                                                                                    
                                                                                                    
                                                                                                    
                                                                                                    
                                                                                                    
                                                                                                    
                                                                                                    
                                                                                                    
                                                                                                    
                                                                                                    
                                                                                                    
                                                                                                    
                                                                                                    
                                                                                                    
                           
<?xpacket end="w"?></metadata>
<defs>
    <style>
      .cls-1 {
        fill: #bfbfbf;
      }

      .cls-1, .cls-2 {
        fill-rule: evenodd;
      }

      .cls-2 {
        fill: #0e86d6;
      }
    </style>
  </defs>
  <path class="cls-1" d="M1154.36,1379.06h18.07v2.06h-18.07v-2.06h0Zm0,6.19h18.07v2.07h-18.07v-2.07h0Zm42.03,17.8h-6.19v-2.06h6.19v2.06h0Zm-21.4,0h-20.65v-2.06h20.65v2.06h0Zm-22.18-30.42a2.582,2.582,0,0,0-2.57,2.57v28.88a2.591,2.591,0,0,0,2.57,2.58h45.38a2.6,2.6,0,0,0,2.58-2.58V1375.2a2.591,2.591,0,0,0-2.58-2.57h-45.38Zm0-3.1h45.38a5.685,5.685,0,0,1,5.67,5.67v28.88a5.685,5.685,0,0,1-5.67,5.67h-45.38a5.691,5.691,0,0,1-5.67-5.67V1375.2a5.691,5.691,0,0,1,5.67-5.67h0Zm-9.94-10.85a2.589,2.589,0,0,0-1.83,3.15l0.8,2.99,48.81-13.08-0.8-2.99a2.59,2.59,0,0,0-3.15-1.82l-43.83,11.75h0Zm51.86,8.27-1.67-6.24-23.31,6.24h-16.94a8.271,8.271,0,0,0-8.25,8.25v11.73l-6.5-24.3a5.672,5.672,0,0,1,4.01-6.94l43.83-11.75a5.692,5.692,0,0,1,6.94,4.01l5.09,19h-3.2Z" transform="translate(-1137.88 -1343.75)"/>
  <path id="Shape_13_copy" data-name="Shape 13 copy" class="cls-2" d="M1190.2,1397.89v-3.61h6.19v3.61h-6.19Zm4.89-7.73h-17a1.3,1.3,0,0,1-1.3-1.3v-11.07a1.3,1.3,0,0,1,1.3-1.29h17a1.3,1.3,0,0,1,1.3,1.29v11.07a1.31,1.31,0,0,1-1.3,1.3h0Zm-40.73,7.73v-3.61h7.22v3.61h-7.22Zm10.32,0v-3.61h8.76v3.61h-8.76Zm12.37,0v-3.61h8.77v3.61h-8.77Z" transform="translate(-1137.88 -1343.75)"/>
</svg>
