<?xml version="1.0" encoding="UTF-8"?>
<svg width="147px" height="22px" viewBox="0 0 147 22" version="1.1" xmlns="http://www.w3.org/2000/svg" xmlns:xlink="http://www.w3.org/1999/xlink">
    <!-- Generator: Sketch 41 (35326) - http://www.bohemiancoding.com/sketch -->
    <title>Group</title>
    <desc>Created with Sketch.</desc>
    <defs></defs>
    <g id="Page-1" stroke="none" stroke-width="1" fill="none" fill-rule="evenodd">
        <g id="отзыв" transform="translate(-345.000000, -136.000000)">
            <g id="Group" transform="translate(345.000000, 136.000000)">
                <path d="M7.09472656,21.2636719 C2.506813,21.2636719 0.212890625,18.7456306 0.212890625,13.7094727 C0.212890625,11.2045773 0.836907822,9.2907781 2.08496094,7.96801758 C3.33301405,6.64525706 5.12157039,5.98388672 7.45068359,5.98388672 C9.15577024,5.98388672 10.6850518,6.31786775 12.0385742,6.98583984 L10.8520508,10.097168 C10.2192351,9.84228388 9.63037382,9.63354573 9.08544922,9.47094727 C8.54052462,9.3083488 7.99560819,9.22705078 7.45068359,9.22705078 C5.35887626,9.22705078 4.31298828,10.7123875 4.31298828,13.6831055 C4.31298828,16.5659324 5.35887626,18.0073242 7.45068359,18.0073242 C8.22412496,18.0073242 8.94042639,17.9040538 9.59960938,17.6975098 C10.2587924,17.4909658 10.9179655,17.1679709 11.5771484,16.7285156 L11.5771484,20.1694336 C10.9267546,20.5825216 10.2697787,20.8681633 9.60620117,21.0263672 C8.94262364,21.1845711 8.1054738,21.2636719 7.09472656,21.2636719 Z M23.2182617,5.98388672 C23.7631863,5.98388672 24.2158185,6.0234371 24.5761719,6.10253906 L24.2729492,9.87304688 C23.9477523,9.78515581 23.5522484,9.74121094 23.0864258,9.74121094 C21.8032162,9.74121094 20.8034704,10.0707975 20.0871582,10.7299805 C19.370846,11.3891635 19.0126953,12.3120058 19.0126953,13.4985352 L19.0126953,21 L14.9916992,21 L14.9916992,6.26074219 L18.0371094,6.26074219 L18.6303711,8.73925781 L18.828125,8.73925781 C19.2851585,7.91308181 19.902584,7.24731698 20.6804199,6.74194336 C21.4582558,6.23656974 22.3041946,5.98388672 23.2182617,5.98388672 Z M32.815918,8.84472656 C31.9633746,8.84472656 31.2954126,9.11498753 30.8120117,9.65551758 C30.3286109,10.1960476 30.0517582,10.9628857 29.9814453,11.9560547 L35.6240234,11.9560547 C35.6064452,10.9628857 35.3471705,10.1960476 34.8461914,9.65551758 C34.3452123,9.11498753 33.6684613,8.84472656 32.815918,8.84472656 Z M33.3828125,21.2636719 C31.0097538,21.2636719 29.1552801,20.6088933 27.8193359,19.2993164 C26.4833918,17.9897395 25.8154297,16.1352659 25.8154297,13.7358398 C25.8154297,11.2661009 26.4328552,9.3566962 27.6677246,8.00756836 C28.9025941,6.65844052 30.6098524,5.98388672 32.7895508,5.98388672 C34.872569,5.98388672 36.4941348,6.5771425 37.6542969,7.76367188 C38.8144589,8.95020125 39.3945312,10.589345 39.3945312,12.6811523 L39.3945312,14.6323242 L29.8891602,14.6323242 C29.9331057,15.7749081 30.2714812,16.666989 30.9042969,17.3085938 C31.5371125,17.9501985 32.424799,18.2709961 33.5673828,18.2709961 C34.4550826,18.2709961 35.2944296,18.1787119 36.0854492,17.9941406 C36.8764688,17.8095694 37.7026324,17.5151387 38.5639648,17.1108398 L38.5639648,20.222168 C37.8608363,20.5737322 37.109379,20.8352042 36.3095703,21.0065918 C35.5097616,21.1779794 34.5341854,21.2636719 33.3828125,21.2636719 Z M47.3310547,21.2636719 C45.5996007,21.2636719 44.2395069,20.5913153 43.2507324,19.246582 C42.2619579,17.9018487 41.7675781,16.0385861 41.7675781,13.6567383 C41.7675781,11.239734 42.2707469,9.3566962 43.2770996,8.00756836 C44.2834523,6.65844052 45.669913,5.98388672 47.4365234,5.98388672 C49.2910249,5.98388672 50.7060498,6.70458264 51.6816406,8.14599609 L51.8134766,8.14599609 C51.6113271,7.04735779 51.5102539,6.06738712 51.5102539,5.20605469 L51.5102539,0.486328125 L55.5444336,0.486328125 L55.5444336,21 L52.4594727,21 L51.6816406,19.0883789 L51.5102539,19.0883789 C50.5961868,20.5385815 49.2031344,21.2636719 47.3310547,21.2636719 Z M48.7416992,18.0600586 C49.7700247,18.0600586 50.5236792,17.7612335 51.0026855,17.1635742 C51.4816918,16.565915 51.7431638,15.5507884 51.7871094,14.1181641 L51.7871094,13.6831055 C51.7871094,12.1010663 51.5432153,10.9672886 51.0554199,10.2817383 C50.5676245,9.59618798 49.7744196,9.25341797 48.6757812,9.25341797 C47.7792924,9.25341797 47.0827662,9.63354112 46.5861816,10.3937988 C46.0895971,11.1540565 45.8413086,12.2592701 45.8413086,13.7094727 C45.8413086,15.1596752 46.0917944,16.2473108 46.5927734,16.9724121 C47.0937525,17.6975134 47.8100539,18.0600586 48.7416992,18.0600586 Z M59.5786133,2.45068359 C59.5786133,1.14110673 60.3080982,0.486328125 61.7670898,0.486328125 C63.2260815,0.486328125 63.9555664,1.14110673 63.9555664,2.45068359 C63.9555664,3.07471015 63.7731952,3.560301 63.4084473,3.9074707 C63.0436993,4.25464041 62.4965857,4.42822266 61.7670898,4.42822266 C60.3080982,4.42822266 59.5786133,3.76904956 59.5786133,2.45068359 Z M63.7709961,21 L59.75,21 L59.75,6.26074219 L63.7709961,6.26074219 L63.7709961,21 Z M74.1992188,18.0600586 C74.9023473,18.0600586 75.7460888,17.9062515 76.7304688,17.5986328 L76.7304688,20.5913086 C75.7285106,21.039553 74.4980542,21.2636719 73.0390625,21.2636719 C71.430656,21.2636719 70.2595252,20.8571818 69.5256348,20.0441895 C68.7917444,19.2311971 68.4248047,18.0117269 68.4248047,16.3857422 L68.4248047,9.27978516 L66.5,9.27978516 L66.5,7.57910156 L68.7148438,6.234375 L69.875,3.12304688 L72.4458008,3.12304688 L72.4458008,6.26074219 L76.5722656,6.26074219 L76.5722656,9.27978516 L72.4458008,9.27978516 L72.4458008,16.3857422 C72.4458008,16.9570341 72.6061996,17.3789049 72.927002,17.6513672 C73.2478043,17.9238295 73.6718724,18.0600586 74.1992188,18.0600586 Z" id="credit" fill="#242424"></path>
                <path d="M82.972168,12.984375 L84.7255859,10.7431641 L88.8520508,6.26074219 L93.387207,6.26074219 L87.5336914,12.6547852 L93.7431641,21 L89.1025391,21 L84.8574219,15.027832 L83.1303711,16.4121094 L83.1303711,21 L79.109375,21 L79.109375,0.486328125 L83.1303711,0.486328125 L83.1303711,9.63574219 L82.9194336,12.984375 L82.972168,12.984375 Z M105.212891,21 L104.435059,18.9960938 L104.32959,18.9960938 C103.652829,19.8486371 102.956302,20.4396956 102.23999,20.7692871 C101.523678,21.0988786 100.58985,21.2636719 99.4384766,21.2636719 C98.0234304,21.2636719 96.9094279,20.859379 96.0964355,20.0507812 C95.2834432,19.2421835 94.8769531,18.0908278 94.8769531,16.5966797 C94.8769531,15.0322187 95.4240668,13.8786658 96.5183105,13.1359863 C97.6125543,12.3933068 99.2626843,11.9824223 101.46875,11.9033203 L104.026367,11.8242188 L104.026367,11.1782227 C104.026367,9.68407456 103.261726,8.93701172 101.732422,8.93701172 C100.554682,8.93701172 99.1704181,9.29296519 97.5795898,10.0048828 L96.2480469,7.2890625 C97.9443444,6.40136275 99.825185,5.95751953 101.890625,5.95751953 C103.868174,5.95751953 105.384272,6.38817929 106.438965,7.24951172 C107.493658,8.11084415 108.020996,9.42040137 108.020996,11.1782227 L108.020996,21 L105.212891,21 Z M104.026367,14.1708984 L102.470703,14.2236328 C101.301752,14.2587892 100.431643,14.4697246 99.8603516,14.8564453 C99.2890596,15.243166 99.003418,15.8320273 99.003418,16.6230469 C99.003418,17.7568416 99.6538021,18.3237305 100.95459,18.3237305 C101.886235,18.3237305 102.631101,18.0556667 103.189209,17.5195312 C103.747317,16.9833958 104.026367,16.2714888 104.026367,15.3837891 L104.026367,14.1708984 Z M120.387207,5.98388672 C120.932132,5.98388672 121.384764,6.0234371 121.745117,6.10253906 L121.441895,9.87304688 C121.116698,9.78515581 120.721194,9.74121094 120.255371,9.74121094 C118.972162,9.74121094 117.972416,10.0707975 117.256104,10.7299805 C116.539791,11.3891635 116.181641,12.3120058 116.181641,13.4985352 L116.181641,21 L112.160645,21 L112.160645,6.26074219 L115.206055,6.26074219 L115.799316,8.73925781 L115.99707,8.73925781 C116.454104,7.91308181 117.071529,7.24731698 117.849365,6.74194336 C118.627201,6.23656974 119.47314,5.98388672 120.387207,5.98388672 Z M137.618164,21 L133.597168,21 L133.597168,12.3911133 C133.597168,11.3276314 133.419191,10.530032 133.063232,9.99829102 C132.707274,9.46655008 132.146976,9.20068359 131.382324,9.20068359 C130.353999,9.20068359 129.606936,9.5786095 129.141113,10.3344727 C128.675291,11.0903358 128.442383,12.3339757 128.442383,14.0654297 L128.442383,21 L124.421387,21 L124.421387,6.26074219 L127.493164,6.26074219 L128.033691,8.14599609 L128.257812,8.14599609 C128.653322,7.4692349 129.224606,6.93969918 129.97168,6.55737305 C130.718754,6.17504692 131.575679,5.98388672 132.54248,5.98388672 C134.748546,5.98388672 136.242672,6.70458264 137.024902,8.14599609 L137.380859,8.14599609 C137.776369,7.46044579 138.358639,6.92871283 139.127686,6.55078125 C139.896732,6.17284967 140.764644,5.98388672 141.731445,5.98388672 C143.401376,5.98388672 144.664791,6.41234923 145.521729,7.26928711 C146.378666,8.12622499 146.807129,9.49950227 146.807129,11.3891602 L146.807129,21 L142.772949,21 L142.772949,12.3911133 C142.772949,11.3276314 142.594972,10.530032 142.239014,9.99829102 C141.883055,9.46655008 141.322758,9.20068359 140.558105,9.20068359 C139.573726,9.20068359 138.837649,9.55224258 138.349854,10.2553711 C137.862058,10.9584996 137.618164,12.0746994 137.618164,13.6040039 L137.618164,21 Z" id="karm" fill="#0084D9"></path>
            </g>
        </g>
    </g>
</svg>