<svg xmlns="http://www.w3.org/2000/svg" width="91.63" height="46.687" viewBox="0 0 91.63 46.687">
  <metadata><?xpacket begin="﻿" id="W5M0MpCehiHzreSzNTczkc9d"?>
<x:xmpmeta xmlns:x="adobe:ns:meta/" x:xmptk="Adobe XMP Core 5.6-c138 79.159824, 2016/09/14-01:09:01        ">
   <rdf:RDF xmlns:rdf="http://www.w3.org/1999/02/22-rdf-syntax-ns#">
      <rdf:Description rdf:about=""/>
   </rdf:RDF>
</x:xmpmeta>
                                                                                                    
                                                                                                    
                                                                                                    
                                                                                                    
                                                                                                    
                                                                                                    
                                                                                                    
                                                                                                    
                                                                                                    
                                                                                                    
                                                                                                    
                                                                                                    
                                                                                                    
                                                                                                    
                                                                                                    
                                                                                                    
                                                                                                    
                                                                                                    
                                                                                                    
                                                                                                    
                           
<?xpacket end="w"?></metadata>
<defs>
    <style>
      .cls-1 {
        fill: #faa819;
        fill-rule: evenodd;
      }
    </style>
  </defs>
  <path class="cls-1" d="M1076.69,785.876h-1.44v5.7a1.428,1.428,0,0,1-1.43,1.426h-22.91a1.428,1.428,0,0,1-1.43-1.426V784.45a1.428,1.428,0,0,1,1.43-1.426h1.44v-4.27h-1.44a1.428,1.428,0,0,1-1.43-1.426V756.289h-3.35a1.428,1.428,0,0,1-1.43-1.426V747.74a1.428,1.428,0,0,1,1.43-1.426h22.91a1.428,1.428,0,0,1,1.43,1.426v6.769h3.35a1.428,1.428,0,0,1,1.43,1.426V775.9h1.44a1.428,1.428,0,0,1,1.43,1.427v7.122A1.428,1.428,0,0,1,1076.69,785.876Zm-10.02-2.852h1.43v-4.27h-1.43v4.27Zm-2.87,7.124h1.43v-4.272h-1.43v4.272Zm0-28.516h1.43v-4.271h-1.43v4.271Zm-8.59,17.122v4.27h9.31v-4.27h-9.31Zm8.59-14.27v4.271h1.43v-4.271h-1.43Zm0,7.146V775.9h1.43V771.63h-1.43Zm-11.46,14.246v4.272h9.31v-4.272h-9.31Zm0-9.975h9.31V771.63h-9.31V775.9Zm0-7.146h9.31v-4.271h-9.31v4.271Zm0-7.123h9.31v-4.271h-9.31v4.271Zm4.53-12.466h-9.31v4.271h9.31v-4.271Zm3.58,0h-1.43v4.271h1.43v-4.271Zm7.16,0h-2.86v4.271h2.86v-4.271Zm4.77,8.195h-2.86v4.271h2.86v-4.271Zm0.01,7.123h-2.86v4.271h2.86v-4.271Zm0,7.146h-2.86V775.9h2.86V771.63Zm0,14.246h-2.86v4.272h2.86v-4.272Zm2.87-7.122h-2.87v4.27h2.87v-4.27Zm-30.22-8.676a1.428,1.428,0,0,1-1.43,1.426h-0.57v4.4h0.72a1.428,1.428,0,0,1,1.43,1.427v14.246a1.428,1.428,0,0,1-1.43,1.426h-22.91a1.428,1.428,0,0,1-1.43-1.426v-12.82h-0.72a1.428,1.428,0,0,1-1.43-1.426V770.2a1.428,1.428,0,0,1,1.43-1.426h0.57v-5.824a1.428,1.428,0,0,1,1.43-1.426h22.91a1.428,1.428,0,0,1,1.43,1.426v7.124Zm-22.76,20.07h9.31v-4.272h-9.31v4.272Zm0-7.124h9.31v-4.27h-9.31v4.27Zm-2.14-11.394V775.9h9.3V771.63h-9.3Zm11.3-7.25h-9.3v4.271h9.3V764.38Zm1.58,7.25h-1.43V775.9h1.43V771.63Zm2-7.25h-1.43v4.271h1.43V764.38Zm0.15,14.374h-1.43v4.27h1.43v-4.27Zm0,7.122h-1.43v4.272h1.43v-4.272Zm2.15-9.975h2.86V771.63h-2.86V775.9Zm4.86-11.521h-2.86v4.271h2.86V764.38Zm0.15,14.374h-2.87v4.27h2.87v-4.27Zm0,7.122h-2.87v4.272h2.87v-4.272ZM1013.69,793h-22.9a1.429,1.429,0,0,1-1.432-1.426v-5.7h-1.431a1.429,1.429,0,0,1-1.432-1.426v-7.122a1.429,1.429,0,0,1,1.432-1.427h22.907a1.428,1.428,0,0,1,1.43,1.427v5.7h1.43a1.428,1.428,0,0,1,1.43,1.426v7.124A1.428,1.428,0,0,1,1013.69,793Zm-21.473-2.852h9.3v-4.272h-9.3v4.272Zm6.445-11.394h-9.307v4.27h9.307v-4.27Zm3.578,0h-1.43v4.27h1.43v-4.27Zm2.86,7.122h-1.43v4.272h1.43v-4.272Zm4.3-7.122h-2.86v4.27h2.86v-4.27Zm2.86,7.122h-2.86v4.272h2.86v-4.272Z" transform="translate(-986.5 -746.313)"/>
</svg>
