<svg id="icon" xmlns="http://www.w3.org/2000/svg" width="50.969" height="63.94" viewBox="0 0 50.969 63.94">
  <metadata><?xpacket begin="﻿" id="W5M0MpCehiHzreSzNTczkc9d"?>
<x:xmpmeta xmlns:x="adobe:ns:meta/" x:xmptk="Adobe XMP Core 5.6-c138 79.159824, 2016/09/14-01:09:01        ">
   <rdf:RDF xmlns:rdf="http://www.w3.org/1999/02/22-rdf-syntax-ns#">
      <rdf:Description rdf:about=""/>
   </rdf:RDF>
</x:xmpmeta>
                                                                                                    
                                                                                                    
                                                                                                    
                                                                                                    
                                                                                                    
                                                                                                    
                                                                                                    
                                                                                                    
                                                                                                    
                                                                                                    
                                                                                                    
                                                                                                    
                                                                                                    
                                                                                                    
                                                                                                    
                                                                                                    
                                                                                                    
                                                                                                    
                                                                                                    
                                                                                                    
                           
<?xpacket end="w"?></metadata>
<defs>
    <style>
      .cls-1 {
        fill: #bfbfbf;
      }

      .cls-1, .cls-2 {
        fill-rule: evenodd;
      }

      .cls-2 {
        fill: #0e86d6;
      }
    </style>
  </defs>
  <path class="cls-1" d="M356.826,1392.38c2.394-.45,12.313-3.38,12.313-3.38,1.792-.48,3.81-1.58,3.9-3.69,0.066-1.48-.494-1.73-0.449-2.7,0.037-.82,2.211-1.96,1.4-4.06-0.352-.91-1.391-2.07-1.288-3.03,0.119-1.1.98-2.28,0.666-3.45-0.537-2-1.585-1.67-2.455-3.22-0.452-.81.417-2.46-1.514-4.29-1.115-1.06-2.287-.94-4.79-0.24-3.272.93-9.272,2.78-12.629,3.34-1.666.28-3.322-.15-3.575-2.19a0.515,0.515,0,0,0-.666-0.43c-5,1.65-5.353,4.13-7.435,8.85l5,18.64C350,1391.13,350.8,1393.51,356.826,1392.38Z" transform="translate(-323.219 -1336.53)"/>
  <path id="Shape_10_copy_2" data-name="Shape 10 copy 2" class="cls-2" d="M342.144,1396.82a1,1,0,0,0,.7-1.22L337,1373.77a1,1,0,0,0-1.222-.71l-12.573,3.4,6.367,24.01Zm-6.371-7.89a2,2,0,1,1-1.994,1.99A1.991,1.991,0,0,1,335.773,1388.93Z" transform="translate(-323.219 -1336.53)"/>
  <path id="Shape_10_copy" data-name="Shape 10 copy" class="cls-2" d="M360.912,1353.52a4.266,4.266,0,1,0,4.734,4.24A4.508,4.508,0,0,0,360.912,1353.52Zm-6.429,11-0.744-19.97c2.457-.15,4.578-2.67,4.562-5.3l7.023,0.89a5.6,5.6,0,0,0,3.8,6.24l-2.391,14.89a6.108,6.108,0,0,1,2,.1l3.557-21.29a1,1,0,0,0-.853-1.17l-18.818-2.39a1,1,0,0,0-1.159,1.02l1.048,27.43C353.165,1364.84,353.825,1364.69,354.483,1364.52Zm-6.805-5.2,0.763,3.19a3.107,3.107,0,0,1,1.418.67l-0.167-4.01-0.093-.39-3.863-10.63c2.585-1.03,2.57-3.58,1.727-5.47l1.622-.34L349,1340.33l-7,1.45a1,1,0,0,0-.7,1.39Z" transform="translate(-323.219 -1336.53)"/>
</svg>
