<?xml version="1.0" encoding="UTF-8"?>
<svg width="83px" height="84px" viewBox="0 0 83 84" version="1.1" xmlns="http://www.w3.org/2000/svg" xmlns:xlink="http://www.w3.org/1999/xlink">
    <!-- Generator: Sketch 42 (36781) - http://www.bohemiancoding.com/sketch -->
    <title>Group 5</title>
    <desc>Created with Sketch.</desc>
    <defs></defs>
    <g id="Page-1" stroke="none" stroke-width="1" fill="none" fill-rule="evenodd">
        <g id="рейтингкомпаний-copy-2" transform="translate(-261.000000, -946.000000)" fill="#6DCF65">
            <g id="советы2" transform="translate(186.000000, 898.000000)">
                <g id="Group-5" transform="translate(75.000000, 48.000000)">
                    <circle id="Oval-2" opacity="0.12669837" cx="44" cy="45" r="39"></circle>
                    <g id="Page-1">
                        <g id="Group-3" transform="translate(22.012048, 0.757633)">
                            <path d="M36.5900205,51.548125 C35.3854301,54.1656932 34.2559843,55.7150682 31.2486831,59.3482955 C27.9795145,63.2967273 21.3728639,62.7485455 18.2008518,62.485875 C17.8820566,62.4599886 17.5928639,62.435625 17.3385867,62.4181136 C4.84333373,61.5585341 3.87176747,53.8687614 3.87176747,51.5321364 L3.87176747,50.0193068 C4.62852651,50.342125 5.46194819,50.5324659 6.34546627,50.5324659 C8.05329759,50.5324659 9.58958675,49.8533295 10.686394,48.7744773 C11.7695386,49.8571364 13.2299241,50.5324659 14.844394,50.5324659 C16.6812614,50.5324659 18.3086349,49.6515682 19.4145506,48.2932955 C20.472647,49.2419545 21.8351169,49.8365795 23.3425627,49.8365795 C24.4773217,49.8365795 25.5839964,49.5084318 26.5434181,48.8871591 C26.6868759,48.7942727 26.8052855,48.6793068 26.9123096,48.5567273 L27.1658277,48.82625 C27.8390928,49.5426932 28.9639843,49.5746705 29.6767193,48.9001023 C30.3902133,48.2247727 30.4228518,47.0971932 29.7503458,46.3815114 L23.4799482,39.71425 C22.4765024,38.6475795 22.467394,37.0144545 23.4594542,36.0764545 C24.4507554,35.1376932 26.0758518,35.242 27.0785386,36.3086705 L35.6951169,45.4701591 C36.9118518,46.7667614 37.5805627,49.3942273 36.5900205,51.548125 L36.5900205,51.548125 Z M3.87176747,33.8220568 C3.87176747,32.6579318 4.98147831,31.7115568 6.34546627,31.7115568 C7.70945422,31.7115568 8.81840602,32.6586932 8.81840602,33.8220568 L8.81840602,44.2413182 L8.81840602,44.8595455 C8.81840602,46.0236705 7.70869518,46.9700455 6.34546627,46.9700455 C4.98223735,46.9700455 3.87176747,46.0236705 3.87176747,44.8595455 L3.87176747,42.5929659 L3.87176747,33.8220568 Z M12.3706952,31.4511705 C12.3706952,29.9459545 13.480406,28.7224432 14.844394,28.7224432 C16.2083819,28.7224432 17.3173337,29.9467159 17.3173337,31.4511705 L17.3173337,43.6131932 L17.3173337,44.2413182 C17.3173337,45.7457727 16.2076229,46.9700455 14.844394,46.9700455 C13.4811651,46.9700455 12.3706952,45.7457727 12.3706952,44.2413182 L12.3706952,33.8220568 L12.3706952,31.4511705 Z M20.8696229,42.12625 C20.8794904,42.1369091 20.8855627,42.1490909 20.8954301,42.1589886 L24.4712494,45.9604773 C24.1220928,46.154625 23.7395386,46.2733977 23.3433217,46.2733977 C21.9793337,46.2733977 20.8703819,45.0803409 20.8703819,43.6131932 L20.8703819,42.12625 L20.8696229,42.12625 Z M20.8696229,28.1719773 C20.8696229,26.7055909 21.9793337,25.5117727 23.3425627,25.5117727 C24.7057916,25.5117727 25.8162614,26.7048295 25.8162614,28.1719773 L25.8162614,31.9437727 C24.106153,31.7420114 22.3451892,32.2315682 21.0206711,33.4855341 C20.9629843,33.5403523 20.9242735,33.6058295 20.8688639,33.6621705 L20.8688639,31.4511705 L20.8688639,28.1719773 L20.8696229,28.1719773 Z M29.3685506,6.58275 C29.3685506,5.11560227 30.4782614,3.92254545 31.8414904,3.92254545 C33.2054783,3.92254545 34.3144301,5.11560227 34.3144301,6.58275 L34.3144301,38.8127955 L29.6607795,33.8646932 C29.5696952,33.768 29.4634301,33.6987159 29.3685506,33.608875 L29.3685506,28.1719773 L29.3685506,6.58275 L29.3685506,6.58275 Z M37.8674783,42.5891591 L37.8674783,6.58275 C37.8674783,3.15128409 35.1645506,0.359363636 31.8422494,0.359363636 C28.5199482,0.359363636 25.8170205,3.15128409 25.8170205,6.58275 L25.8170205,22.512 C25.0602614,22.1579659 24.2268398,21.9485909 23.3433217,21.9485909 C20.7770205,21.9485909 18.5963096,23.6220682 17.7294904,25.9609773 C16.8687434,25.4653295 15.895659,25.1585 14.845153,25.1585 C12.3843578,25.1585 10.2689241,26.7116818 9.3345506,28.9249659 C8.45027349,28.4445455 7.43847831,28.148375 6.3462253,28.148375 C3.0239241,28.148375 0.320237349,30.6936136 0.320237349,33.8220568 L0.320237349,42.5922045 L0.320237349,44.8587841 L0.320237349,51.531375 C0.320237349,57.6603523 4.71429759,65.1201932 17.0964542,65.9721591 L17.9093819,66.0361136 C18.9697554,66.1244318 20.3504422,66.2386364 21.8882494,66.2386364 C25.8238518,66.2386364 30.7818759,65.4886932 33.9812133,61.6240114 C36.9308277,58.0615909 38.3737554,56.1726477 39.8151651,53.0396364 C41.514647,49.3455 40.3282735,45.2059659 38.2788759,43.0254205 L37.8674783,42.5891591 Z" id="Fill-1"></path>
                        </g>
                        <g id="Group-6" transform="translate(31.879518, 0.757633)">
                            <path d="M2.43794819,13.5438977 C2.65275542,14.547375 3.53627349,15.2348864 4.51998434,15.2348864 C4.66799639,15.2348864 4.81752651,15.2188977 4.96781566,15.1876818 C6.11851446,14.941 6.85250241,13.8042841 6.6065747,12.6500568 L4.26950241,1.69403409 C4.02281566,0.539806818 2.8895747,-0.192625 1.73963494,0.05025 C0.588936145,0.296931818 -0.145051807,1.43364773 0.100875904,2.587875 L2.43794819,13.5438977 Z" id="Fill-4"></path>
                        </g>
                        <path d="M23.1027831,20.3208716 L15.1002651,11.8788716 C14.2888554,11.0238602 12.9400482,10.9888375 12.0868916,11.8019739 C11.2337349,12.6158716 11.2003373,13.9688148 12.0102289,14.8245875 L20.011988,23.2658261 C20.4309759,23.707417 20.9934217,23.9304966 21.5573855,23.9304966 C22.0849157,23.9304966 22.6132048,23.7355875 23.0253614,23.3427239 C23.8792771,22.5295875 23.9126747,21.175883 23.1027831,20.3208716" id="Fill-7"></path>
                        <path d="M1.46873494,34.5796898 L12.5248554,38.2121557 C12.7449759,38.2844852 12.9681325,38.3187466 13.188253,38.3187466 C14.0846747,38.3187466 14.9188554,37.7469625 15.2126024,36.845508 C15.5792169,35.7240193 14.9689518,34.5157352 13.8508916,34.148758 L2.79477108,30.516292 C1.67898795,30.1508375 0.472879518,30.7599284 0.10626506,31.8821784 C-0.259590361,33.0044284 0.349915663,34.2119511 1.46873494,34.5796898" id="Fill-9"></path>
                        <path d="M12.9658554,50.0490761 L1.6463494,52.710042 C0.500204819,52.9788034 -0.211012048,54.1299852 0.057686747,55.278883 C0.287674699,56.2648489 1.16360241,56.9295193 2.13061446,56.9295193 C2.29153012,56.9295193 2.45472289,56.9112466 2.6186747,56.872417 L13.9381807,54.2114511 C15.0843253,53.9426898 15.7955422,52.791508 15.5268434,51.6426102 C15.2581446,50.4937125 14.1142771,49.7818375 12.9658554,50.0490761" id="Fill-11"></path>
                    </g>
                </g>
            </g>
        </g>
    </g>
</svg>