<svg id="icon" xmlns="http://www.w3.org/2000/svg" width="61.594" height="58.22" viewBox="0 0 61.594 58.22">
  <metadata><?xpacket begin="﻿" id="W5M0MpCehiHzreSzNTczkc9d"?>
<x:xmpmeta xmlns:x="adobe:ns:meta/" x:xmptk="Adobe XMP Core 5.6-c138 79.159824, 2016/09/14-01:09:01        ">
   <rdf:RDF xmlns:rdf="http://www.w3.org/1999/02/22-rdf-syntax-ns#">
      <rdf:Description rdf:about=""/>
   </rdf:RDF>
</x:xmpmeta>
                                                                                                    
                                                                                                    
                                                                                                    
                                                                                                    
                                                                                                    
                                                                                                    
                                                                                                    
                                                                                                    
                                                                                                    
                                                                                                    
                                                                                                    
                                                                                                    
                                                                                                    
                                                                                                    
                                                                                                    
                                                                                                    
                                                                                                    
                                                                                                    
                                                                                                    
                                                                                                    
                           
<?xpacket end="w"?></metadata>
<defs>
    <style>
      .cls-1 {
        fill: #bfbfbf;
      }

      .cls-1, .cls-2 {
        fill-rule: evenodd;
      }

      .cls-2 {
        fill: #0e86d6;
      }
    </style>
  </defs>
  <path class="cls-1" d="M774.659,1515.89a18.54,18.54,0,0,1,1.21,5.28h18.359v3.85H796.4a6.854,6.854,0,0,1,4.564,1.69v-11.55a4.591,4.591,0,0,0-4.564-4.58H783.147a3.348,3.348,0,0,0-3.229,2.49l-0.812,2.82h-4.447Zm21.742,14.42a1.677,1.677,0,0,1,1.677,1.68v26.82a2.288,2.288,0,0,1-2.244,2.3H752.208a2.191,2.191,0,0,1-2.242-2.18l-0.007-17.7a19.086,19.086,0,0,1-2.876-1.29l0,18.99a5.093,5.093,0,0,0,5.129,5.07h43.626a5.2,5.2,0,0,0,5.131-5.19v-26.82a4.575,4.575,0,0,0-4.564-4.56l-21,.01a20,20,0,0,1-.937,2.88Z" transform="translate(-739.375 -1505.78)"/>
  <path id="Shape_11_copy" data-name="Shape 11 copy" class="cls-2" d="M747.082,1528.34a15.863,15.863,0,0,0,2.724,3.18h0.154l0-11a1.762,1.762,0,0,1,1.682-1.75h14.844a14,14,0,0,0-1.746-2.89h-13.1a4.641,4.641,0,0,0-4.57,4.61Zm-7.713-5.49a17.094,17.094,0,0,0,27.338,13.67l1.767,1.76,3.4-3.4-1.765-1.77A17.082,17.082,0,1,0,739.369,1522.85Zm17.083-13.23a13.23,13.23,0,1,1-13.234,13.23A13.23,13.23,0,0,1,756.452,1509.62Zm13.93,30.57,7.708,7.71a2.409,2.409,0,1,0,3.4-3.41l-7.709-7.7Zm-18.02-9.88h11.931a16.619,16.619,0,0,0,1.159-1.44h-13.09v1.44Zm0-7.21h14.914s0-.17,0-0.25c0-.4-0.022-0.72-0.065-1.2H752.362v1.45Zm0,3.61h14.21a12.3,12.3,0,0,0,.437-1.45H752.362v1.45Z" transform="translate(-739.375 -1505.78)"/>
</svg>
