<svg id="icon" xmlns="http://www.w3.org/2000/svg" width="66.37" height="61.75" viewBox="0 0 66.37 61.75">
  <metadata><?xpacket begin="﻿" id="W5M0MpCehiHzreSzNTczkc9d"?>
<x:xmpmeta xmlns:x="adobe:ns:meta/" x:xmptk="Adobe XMP Core 5.6-c138 79.159824, 2016/09/14-01:09:01        ">
   <rdf:RDF xmlns:rdf="http://www.w3.org/1999/02/22-rdf-syntax-ns#">
      <rdf:Description rdf:about=""/>
   </rdf:RDF>
</x:xmpmeta>
                                                                                                    
                                                                                                    
                                                                                                    
                                                                                                    
                                                                                                    
                                                                                                    
                                                                                                    
                                                                                                    
                                                                                                    
                                                                                                    
                                                                                                    
                                                                                                    
                                                                                                    
                                                                                                    
                                                                                                    
                                                                                                    
                                                                                                    
                                                                                                    
                                                                                                    
                                                                                                    
                           
<?xpacket end="w"?></metadata>
<defs>
    <style>
      .cls-1 {
        fill: #bfbfbf;
      }

      .cls-1, .cls-2 {
        fill-rule: evenodd;
      }

      .cls-2 {
        fill: #0e86d6;
      }
    </style>
  </defs>
  <path class="cls-1" d="M1195.17,1502.29h-5.7v6.19l-10.13-5.84a2.58,2.58,0,0,0-2.63.02l-24.57,14.19,2.59,4.47,3.11-1.79v6.63a20.553,20.553,0,0,1,3.11,1.3v-9.73l17.08-9.86,17.14,9.89v23.68h-9.34a4.662,4.662,0,0,1-.22.79l-0.84,2.32h11.96a1.551,1.551,0,0,0,1.55-1.55v-23.44l3.11,1.8,2.61-4.48-8.83-5.11v-9.48Zm-11.99,39.06a2.671,2.671,0,0,0-1.59-3.41l-3.43-1.25-9.42,25.9,3.43,1.25a2.655,2.655,0,0,0,3.4-1.59l2.76-7.57a0.246,0.246,0,0,1,.24-0.17,0.258,0.258,0,0,1,.25.17,2.088,2.088,0,0,0,3.55.66,25.394,25.394,0,0,1,8,6.04,6.173,6.173,0,1,0,3.58-9.85h0a25.613,25.613,0,0,1-10.01-.52,2.081,2.081,0,0,0-3.14-1.77,0.272,0.272,0,0,1-.3-0.03,0.247,0.247,0,0,1-.08-0.29Zm-17.22,19.17,2.49,0.91,8.74-24.03-2.49-.9Z" transform="translate(-1137.63 -1502.28)"/>
  <path id="Shape_8_copy" data-name="Shape 8 copy" class="cls-2" d="M1145.75,1539.03l-1.32,1.56,7.68,10.79,3.82-.43,9.24-23.63-1.49-.84-10.89,17.89Zm3.02-10.53a15.032,15.032,0,1,0,16.34,6.09l-2.04,5.23a10.892,10.892,0,1,1-6.34-6.91l2.17-3.57A14.923,14.923,0,0,0,1148.77,1528.5Z" transform="translate(-1137.63 -1502.28)"/>
</svg>
