<?xml version="1.0" encoding="UTF-8"?>
<svg width="11px" height="15px" viewBox="0 0 11 15" version="1.1" xmlns="http://www.w3.org/2000/svg" xmlns:xlink="http://www.w3.org/1999/xlink">
    <!-- Generator: Sketch 42 (36781) - http://www.bohemiancoding.com/sketch -->
    <title>Page 1</title>
    <desc>Created with Sketch.</desc>
    <defs></defs>
    <g id="Page-1" stroke="none" stroke-width="1" fill="none" fill-rule="evenodd" opacity="0.449999988">
        <g id="компания" transform="translate(-473.000000, -1380.000000)" fill="#4990E2">
            <g id="Group-5" transform="translate(306.000000, 1345.000000)">
                <g id="Page-1" transform="translate(167.000000, 35.000000)">
                    <path d="M7.15838904,5.47709958 C7.15838904,6.23883619 6.54107565,6.85614958 5.77933904,6.85614958 C5.01632435,6.85614958 4.39901096,6.23883619 4.39901096,5.47709958 C4.39901096,4.71536297 5.01632435,4.09804958 5.77933904,4.09804958 C6.54107565,4.09804958 7.15838904,4.71536297 7.15838904,5.47709958 M5.77933904,0.50025 C3.11198283,0.50025 0.949468837,2.66020783 0.949468837,5.32628596 C0.949468837,7.99236409 3.11198283,14.29075 5.77933904,14.29075 C8.44541717,14.29075 10.6079312,7.99236409 10.6079312,5.32628596 C10.6079312,2.66020783 8.44541717,0.50025 5.77933904,0.50025" id="Fill-1"></path>
                </g>
            </g>
        </g>
    </g>
</svg>