<svg id="icon" xmlns="http://www.w3.org/2000/svg" width="72.75" height="72.19" viewBox="0 0 72.75 72.19">
  <metadata><?xpacket begin="﻿" id="W5M0MpCehiHzreSzNTczkc9d"?>
<x:xmpmeta xmlns:x="adobe:ns:meta/" x:xmptk="Adobe XMP Core 5.6-c138 79.159824, 2016/09/14-01:09:01        ">
   <rdf:RDF xmlns:rdf="http://www.w3.org/1999/02/22-rdf-syntax-ns#">
      <rdf:Description rdf:about=""/>
   </rdf:RDF>
</x:xmpmeta>
                                                                                                    
                                                                                                    
                                                                                                    
                                                                                                    
                                                                                                    
                                                                                                    
                                                                                                    
                                                                                                    
                                                                                                    
                                                                                                    
                                                                                                    
                                                                                                    
                                                                                                    
                                                                                                    
                                                                                                    
                                                                                                    
                                                                                                    
                                                                                                    
                                                                                                    
                                                                                                    
                           
<?xpacket end="w"?></metadata>
<defs>
    <style>
      .cls-1 {
        fill: #bfbfbf;
      }

      .cls-1, .cls-2 {
        fill-rule: evenodd;
      }

      .cls-2 {
        fill: #0e86d6;
      }
    </style>
  </defs>
  <path class="cls-1" d="M799.373,1379.78c-0.662.27-1.328,0.53-1.992,0.8,0.37-1.25-1.431-2.1-3.218-1.43a13.551,13.551,0,0,0-1.314.57c0.146-1.34-1.671-2.18-4.215-1.14-0.619.26-4.384,2.35-5.673,2.92,2.181,0.63,4.293,2.09,3.842,4.7a3.583,3.583,0,0,1-3.392,3.18c-7.107.17-10.08,0.55-14.565-1.51a8.333,8.333,0,0,1-3.973-4.74c7.76,4.89,9.487,4.33,18.42,4.12a1.407,1.407,0,0,0,1.346-1.42c0.008-2.14-1.615-2.52-4.633-3.08-2.6-.47-4.786-0.66-6.724-2.4-3.774-3.4-7.328-5.46-11.123-5.69s-7.714.82-12.545,3.64v13.92c1.7-.44,4.274-1.35,6.013-1.79a4.914,4.914,0,0,1,3.57.65c7.639,4.07,8.026,3.46,16.644,4.91a6.729,6.729,0,0,0,3.245-.18c10.835-3.35,11.752-4.28,22.7-11.14C805.362,1382.43,803.177,1378.22,799.373,1379.78Z" transform="translate(-730.875 -1331.81)"/>
  <path id="Shape_9_copy" data-name="Shape 9 copy" class="cls-2" d="M762.047,1355.26a1.029,1.029,0,0,0-.024.19,7.1,7.1,0,0,0,6.052,7.84,0.614,0.614,0,0,0,.19.03A7.1,7.1,0,1,0,762.047,1355.26Zm2.911,1.61a0.438,0.438,0,0,1,.441-0.32h0.412v-0.23c0-.14,0-0.34,0-0.34H765.4a0.5,0.5,0,0,1-.441-0.39v-0.28a0.589,0.589,0,0,1,.441-0.47h0.554a4.678,4.678,0,0,1,.912-1.73,3.9,3.9,0,0,1,3.052-1.29,5.219,5.219,0,0,1,1.7.29,0.323,0.323,0,0,1,.212.39l-0.212.86a0.336,0.336,0,0,1-.16.21,0.345,0.345,0,0,1-.264.01,3.917,3.917,0,0,0-1.144-.21,2.015,2.015,0,0,0-1.613.68,2.154,2.154,0,0,0-.423.79h2.959c0.182,0,.236.29,0.236,0.47v0.28a0.322,0.322,0,0,1-.236.39h-3.157a1.857,1.857,0,0,0-.016.35v0.22h3.173a0.255,0.255,0,0,1,.236.32v0.28a0.2,0.2,0,0,1-.236.25h-2.985a1.526,1.526,0,0,0,.436.96,2.235,2.235,0,0,0,1.705.72,3.971,3.971,0,0,0,1.159-.2,0.324,0.324,0,0,1,.431.24l0.179,0.82a0.321,0.321,0,0,1-.189.37,4.5,4.5,0,0,1-1.818.37,3.994,3.994,0,0,1-3.225-1.52,3.286,3.286,0,0,1-.739-1.76H765.4a0.391,0.391,0,0,1-.441-0.25v-0.28Zm9.378-13.68a5.68,5.68,0,1,0-5.683-5.68A5.68,5.68,0,0,0,774.336,1343.19Zm-2.688-8.98a0.239,0.239,0,0,1,.235-0.11H773a0.236,0.236,0,0,1,.249.14l0.687,1.54c0.167,0.37.279,0.69,0.4,1.02a0.068,0.068,0,0,0,.125.01c0.129-.32.255-0.67,0.412-1.03l0.7-1.55a0.243,0.243,0,0,1,.248-0.13H776.9a0.245,0.245,0,0,1,.236.12,0.223,0.223,0,0,1,0,.25l-1.355,2.26a0.313,0.313,0,0,0,0,.3,0.336,0.336,0,0,0,.237.2h0.535c0.149,0,.349.01,0.349,0.16v0.23c0,0.15-.2.17-0.349,0.17h-1.156a0.325,0.325,0,0,0-.2.37v0.15a0.29,0.29,0,0,0,.2.34h1.156a0.3,0.3,0,0,1,.349.2v0.23c0,0.15-.2.13-0.349,0.13h-1.156c-0.15,0-.2.26-0.2,0.41v1.19a0.466,0.466,0,0,1-.345.39h-1a0.48,0.48,0,0,1-.356-0.39v-1.19c0-.15-0.038-0.41-0.187-0.41h-1.145c-0.15,0-.373.02-0.373-0.13v-0.23a0.33,0.33,0,0,1,.373-0.2H773.3c0.149,0,.187-0.19.187-0.34v-0.15c0-.15-0.038-0.37-0.187-0.37h-1.145c-0.15,0-.373-0.02-0.373-0.17v-0.23c0-.15.224-0.16,0.373-0.16h0.557a0.322,0.322,0,0,0,.236-0.19,0.363,0.363,0,0,0,0-.32l-1.3-2.25A0.246,0.246,0,0,1,771.648,1334.21Zm18.972,15.5a6.535,6.535,0,1,0-7.318,5.65A6.543,6.543,0,0,0,790.62,1349.71Zm-4.067,2.16a0.383,0.383,0,0,1-.208.41h-4.413a0.385,0.385,0,0,1-.209-0.41v-0.43a0.26,0.26,0,0,1,.115-0.26,1.862,1.862,0,0,0,1.028-1.55,4.653,4.653,0,0,0-.021-0.47h-0.793a0.282,0.282,0,0,1-.329-0.21v-0.58a0.4,0.4,0,0,1,.329-0.35h0.6a4.2,4.2,0,0,1-.088-0.84,2.214,2.214,0,0,1,2.458-2.23,3.178,3.178,0,0,1,1.053.17,0.268,0.268,0,0,1,.175.31l-0.149.71a0.262,0.262,0,0,1-.127.18,0.273,0.273,0,0,1-.217.02,2.373,2.373,0,0,0-.647-0.09,0.905,0.905,0,0,0-1.012,1.01,3.066,3.066,0,0,0,.109.76h1.217a0.357,0.357,0,0,1,.28.35v0.58a0.228,0.228,0,0,1-.28.21h-1.076a2.448,2.448,0,0,1-.1.8,0.414,0.414,0,0,0,0,.05,1.621,1.621,0,0,1-.532.76v0.09h2.633a0.177,0.177,0,0,1,.208.21v0.8Zm-5.731,26.27a7.955,7.955,0,1,0-7.956-7.95A7.953,7.953,0,0,0,780.822,1378.14Zm-3.5-6.57,1.574,0.01c0.512,0,.28.63,0.618,1.06,0.427,0.53,2.16.42,2.6,0.12a0.785,0.785,0,0,0,.051-1.21c-0.864-.71-3.068-0.57-4.352-1.68-1.462-1.26-.865-4.18,2.115-4.4,0.581-.05.119-0.82,0.729-0.82,0.484,0,.933-0.1.93,0.44,0,0.67.955,0.08,2.129,1.12,0.658,0.57,1.216,2,.445,2l-1.452-.01c-0.457,0-.3-0.48-0.6-0.84a2.829,2.829,0,0,0-2.491-.13,0.743,0.743,0,0,0-.023,1.14c1,0.77,5.126.47,5.114,3.5-0.007,1.77-1.215,2.62-2.949,2.79-0.653.06-.025,1.08-0.722,1.07-0.813,0-.888.04-0.885-0.71,0-.69-1.061-0.06-2.344-1.22a2.755,2.755,0,0,1-.861-1.81A0.376,0.376,0,0,1,777.32,1371.57Z" transform="translate(-730.875 -1331.81)"/>
  <path id="Shape_9_copy_2" data-name="Shape 9 copy 2" class="cls-2" d="M746.773,1397.52v-22.26a1.129,1.129,0,0,0-1.356-1.11L730.86,1377v27l15.159-5.41A1.123,1.123,0,0,0,746.773,1397.52Zm-9.093-1.48a2.27,2.27,0,1,1,2.273-2.27A2.268,2.268,0,0,1,737.68,1396.04Z" transform="translate(-730.875 -1331.81)"/>
</svg>
