<svg xmlns="http://www.w3.org/2000/svg" width="12.6" height="18.375" viewBox="0 0 12.6 18.375">
  <metadata><?xpacket begin="﻿" id="W5M0MpCehiHzreSzNTczkc9d"?>
<x:xmpmeta xmlns:x="adobe:ns:meta/" x:xmptk="Adobe XMP Core 5.6-c138 79.159824, 2016/09/14-01:09:01        ">
   <rdf:RDF xmlns:rdf="http://www.w3.org/1999/02/22-rdf-syntax-ns#">
      <rdf:Description rdf:about=""/>
   </rdf:RDF>
</x:xmpmeta>
                                                                                                    
                                                                                                    
                                                                                                    
                                                                                                    
                                                                                                    
                                                                                                    
                                                                                                    
                                                                                                    
                                                                                                    
                                                                                                    
                                                                                                    
                                                                                                    
                                                                                                    
                                                                                                    
                                                                                                    
                                                                                                    
                                                                                                    
                                                                                                    
                                                                                                    
                                                                                                    
                           
<?xpacket end="w"?></metadata>
<defs>
    <style>
      .cls-1 {
        fill: #0e86d6;
        fill-rule: evenodd;
      }
    </style>
  </defs>
  <path id="pin" class="cls-1" d="M1165.89,26.8a6.377,6.377,0,0,0-6.29,6.456,7.047,7.047,0,0,0,.05.8c0.54,5.043,5.83,10.855,5.83,10.855a1.04,1.04,0,0,0,.28.223v0l0.17,0.057,0.18-.057,0.01,0a1.088,1.088,0,0,0,.27-0.223s5.21-5.822,5.74-10.866a6.9,6.9,0,0,0,.05-0.792A6.37,6.37,0,0,0,1165.89,26.8Zm0,9.809a3.355,3.355,0,1,1,3.27-3.353A3.319,3.319,0,0,1,1165.89,36.611Z" transform="translate(-1159.59 -26.813)"/>
</svg>
