<svg id="icon" xmlns="http://www.w3.org/2000/svg" width="56.063" height="55.84" viewBox="0 0 56.063 55.84">
  <metadata><?xpacket begin="﻿" id="W5M0MpCehiHzreSzNTczkc9d"?>
<x:xmpmeta xmlns:x="adobe:ns:meta/" x:xmptk="Adobe XMP Core 5.6-c138 79.159824, 2016/09/14-01:09:01        ">
   <rdf:RDF xmlns:rdf="http://www.w3.org/1999/02/22-rdf-syntax-ns#">
      <rdf:Description rdf:about=""/>
   </rdf:RDF>
</x:xmpmeta>
                                                                                                    
                                                                                                    
                                                                                                    
                                                                                                    
                                                                                                    
                                                                                                    
                                                                                                    
                                                                                                    
                                                                                                    
                                                                                                    
                                                                                                    
                                                                                                    
                                                                                                    
                                                                                                    
                                                                                                    
                                                                                                    
                                                                                                    
                                                                                                    
                                                                                                    
                                                                                                    
                           
<?xpacket end="w"?></metadata>
<defs>
    <style>
      .cls-1 {
        fill: #0e86d6;
      }

      .cls-1, .cls-2 {
        fill-rule: evenodd;
      }

      .cls-2 {
        fill: #bfbfbf;
      }
    </style>
  </defs>
  <path class="cls-1" d="M376.175,1560.64H375.3v3.49a0.873,0.873,0,0,1-.876.87H360.407a0.873,0.873,0,0,1-.875-0.87v-4.36a0.873,0.873,0,0,1,.875-0.87h0.879v-2.62h-0.879a0.873,0.873,0,0,1-.875-0.87v-4.36h0v-3.49H358.22a0.875,0.875,0,0,1-.876-0.88v-4.35a0.875,0.875,0,0,1,.876-0.88h14.013a0.875,0.875,0,0,1,.876.88v3.48h1.311a0.873,0.873,0,0,1,.876.87v4.37h0v3.49h0.879a0.873,0.873,0,0,1,.876.87v4.36A0.873,0.873,0,0,1,376.175,1560.64Zm-6.13-1.74h0.875v-2.62h-0.875v2.62Zm-8.762,1.74v2.62h5.694v-2.62h-5.694Zm7.448-1.74v-2.62h-5.693v2.62h5.693Zm-7.448-4.36h5.694v-2.61h-5.694v2.61Zm0-4.37h5.694v-2.61h-5.694v2.61Zm3.507-6.97H359.1v2.61h5.694v-2.61Zm2.189,0H366.1v2.61h0.876v-2.61Zm2.187,4.36H368.29v2.61h0.876v-2.61Zm0,4.37H368.29v2.61h0.876v-2.61Zm0,8.71H368.29v2.62h0.876v-2.62Zm2.191-17.44h-1.751v2.61h1.751v-2.61Zm2.187,4.36h-1.75v2.61h1.75v-2.61Zm0,4.37h-1.75v2.61h1.75v-2.61Zm0,8.71h-1.75v2.62h1.75v-2.62Zm1.755-4.36h-1.751v2.62H375.3v-2.62ZM356.031,1565H342.018a0.873,0.873,0,0,1-.876-0.87v-7.85H340.7a0.874,0.874,0,0,1-.876-0.87v-4.36a0.874,0.874,0,0,1,.876-0.87h14.014a0.874,0.874,0,0,1,.876.87v3.49h0.438a0.873,0.873,0,0,1,.876.87v8.72A0.873,0.873,0,0,1,356.031,1565Zm-13.138-1.74h5.694v-2.62h-5.694v2.62Zm0-4.36h5.694v-2.62h-5.694v2.62Zm4.38-6.97h-5.694v2.61h5.694v-2.61Zm2.189,0h-0.875v2.61h0.875v-2.61Zm1.314,4.35H349.9v2.62h0.875v-2.62Zm0,4.36H349.9v2.62h0.875v-2.62Zm3.065-8.71H352.09v2.61h1.751v-2.61Zm1.314,4.35H353.4v2.62h1.751v-2.62Zm0,4.36H353.4v2.62h1.751v-2.62ZM337.638,1565H323.625a0.873,0.873,0,0,1-.876-0.87v-3.49h-0.875a0.873,0.873,0,0,1-.876-0.87v-4.36a0.873,0.873,0,0,1,.876-0.87h14.013a0.874,0.874,0,0,1,.876.87v3.49h0.875a0.874,0.874,0,0,1,.876.87v4.36A0.874,0.874,0,0,1,337.638,1565Zm-13.138-1.74h5.694v-2.62H324.5v2.62Zm3.943-6.98h-5.694v2.62h5.694v-2.62Zm2.189,0h-0.875v2.62h0.875v-2.62Zm1.751,4.36h-0.875v2.62h0.875v-2.62Zm2.628-4.36H333.26v2.62h1.751v-2.62Zm1.751,4.36h-1.751v2.62h1.751v-2.62Z" transform="translate(-321 -1509.16)"/>
  <path id="Shape_12_copy" data-name="Shape 12 copy" class="cls-2" d="M335.309,1509.17c-6.973,0-11.03,5.35-11.03,11.67,0,6.77,4.629,11.21,10.687,11.21,5.658,0,10.915-4.15,10.915-11.89,0-6.04-3.715-10.99-10.572-10.99h0Zm-0.229,5.46c2.4,0,3.257,2.57,3.257,5.98,0,3.93-1.086,5.98-3.143,5.98-2.286,0-3.372-2.45-3.372-5.98,0-3.36.915-5.98,3.258-5.98h0Zm6,32.79,21.087-38.14h-5.257l-21.145,38.14h5.315Zm22.117-22.88c-6.973,0-11.031,5.35-11.031,11.61a11.425,11.425,0,0,0,2.988,8.06v-1.88a3.063,3.063,0,0,1,3.065-3.06h1.913a11.282,11.282,0,0,1-.422-3.29c0-3.36.915-5.98,3.258-5.98,2.4,0,3.257,2.51,3.257,5.98a12.583,12.583,0,0,1-.367,3.29h6.374a2.9,2.9,0,0,1,1.022.18,14.465,14.465,0,0,0,.515-3.92c0-6.04-3.715-10.99-10.572-10.99h0Z" transform="translate(-321 -1509.16)"/>
</svg>
