<?xml version="1.0" encoding="UTF-8"?>
<svg width="19px" height="19px" viewBox="0 0 19 19" version="1.1" xmlns="http://www.w3.org/2000/svg" xmlns:xlink="http://www.w3.org/1999/xlink">
    <!-- Generator: Sketch 42 (36781) - http://www.bohemiancoding.com/sketch -->
    <title>Fill 1</title>
    <desc>Created with Sketch.</desc>
    <defs></defs>
    <g id="Page-1" stroke="none" stroke-width="1" fill="none" fill-rule="evenodd">
        <g id="оставить-отзыв" transform="translate(-838.000000, -284.000000)" fill="#0E86D6">
            <g id="Group-4" transform="translate(818.000000, 250.000000)">
                <g id="Group-2" transform="translate(20.000000, 34.000000)">
                    <path d="M7.7821716,0.970843333 C8.12891061,0.371045103 8.79012519,-0.016083356 9.46320678,0.000513377522 C10.1555723,-0.00682006287 10.8264288,0.414659775 11.1587049,1.04456371 C11.7987814,2.41475915 12.4507248,3.779551 13.0978474,5.14627271 C14.2619262,5.3272929 15.4334219,5.47704947 16.6004675,5.64533263 C16.9750198,5.70515806 17.3644059,5.71982494 17.7152242,5.88309049 C18.204738,6.09846205 18.5982034,6.53306489 18.7799169,7.05219527 C18.9968605,7.65122156 18.9152749,8.3544599 18.5722443,8.88478343 C18.4672955,9.06040003 18.316362,9.19741957 18.1910168,9.35721138 C17.2420274,10.3541733 16.2911838,11.3492054 15.3444194,12.3488691 C15.5509794,13.5828169 15.7616188,14.8163788 15.9711455,16.0499407 C16.0200969,16.3957703 16.1205956,16.7392841 16.0868488,17.0924471 C16.0523603,17.6937892 15.7441891,18.2700433 15.2721049,18.6178027 C14.7751741,18.99451 14.1039467,19.1018098 13.521351,18.8991752 C13.2547143,18.8215952 13.0381415,18.6359433 12.7881928,18.5197662 C11.6853031,17.9435122 10.5801885,17.3730477 9.47952391,16.792934 C8.23534279,17.4266976 6.99969108,18.0793738 5.75773502,18.7177691 C5.32607278,18.9825449 4.79576607,19.0659145 4.30810641,18.9424039 C3.76444932,18.8092441 3.28680244,18.41787 3.0301785,17.9010554 C2.77874636,17.4104868 2.74611211,16.8160922 2.91187931,16.2907863 C3.14328587,14.9765566 3.37283821,13.6615549 3.60201971,12.3473252 C3.23228839,11.9713899 2.88109927,11.577314 2.51173879,11.2013787 C1.9291431,10.6054401 1.36620214,9.98904517 0.783606445,9.39272067 C0.316714037,9.01987312 0.0100261716,8.43088207 0.00186760686,7.81410113 C-0.0315083397,7.06030065 0.385320149,6.31576347 1.02280073,5.96260042 C1.34506404,5.76691335 1.72147054,5.72368465 2.08415583,5.67157863 C3.33760805,5.5002077 4.59068942,5.32497707 5.84451248,5.155536 C6.39892404,3.95709746 6.95741488,2.76097473 7.51219728,1.56292215 C7.61158343,1.36993688 7.66350157,1.15379337 7.7821716,0.970843333" id="Fill-1"></path>
                </g>
            </g>
        </g>
    </g>
</svg>