<svg xmlns="http://www.w3.org/2000/svg" width="19" height="19" viewBox="0 0 19 19">
  <path fill="#E3E3E3" fill-rule="evenodd" d="M652.782172,196.970843 C653.128911,196.371045 653.790125,195.983917 654.463207,196.000513 C655.155572,195.99318 655.826429,196.41466 656.158705,197.044564 C656.798781,198.414759 657.450725,199.779551 658.097847,201.146273 C659.261926,201.327293 660.433422,201.477049 661.600468,201.645333 C661.97502,201.705158 662.364406,201.719825 662.715224,201.88309 C663.204738,202.098462 663.598203,202.533065 663.779917,203.052195 C663.996861,203.651222 663.915275,204.35446 663.572244,204.884783 C663.467295,205.0604 663.316362,205.19742 663.191017,205.357211 C662.242027,206.354173 661.291184,207.349205 660.344419,208.348869 C660.550979,209.582817 660.761619,210.816379 660.971146,212.049941 C661.020097,212.39577 661.120596,212.739284 661.086849,213.092447 C661.05236,213.693789 660.744189,214.270043 660.272105,214.617803 C659.775174,214.99451 659.103947,215.10181 658.521351,214.899175 C658.254714,214.821595 658.038142,214.635943 657.788193,214.519766 C656.685303,213.943512 655.580188,213.373048 654.479524,212.792934 C653.235343,213.426698 651.999691,214.079374 650.757735,214.717769 C650.326073,214.982545 649.795766,215.065915 649.308106,214.942404 C648.764449,214.809244 648.286802,214.41787 648.030178,213.901055 C647.778746,213.410487 647.746112,212.816092 647.911879,212.290786 C648.143286,210.976557 648.372838,209.661555 648.60202,208.347325 C648.232288,207.97139 647.881099,207.577314 647.511739,207.201379 C646.929143,206.60544 646.366202,205.989045 645.783606,205.392721 C645.316714,205.019873 645.010026,204.430882 645.001868,203.814101 C644.968492,203.060301 645.38532,202.315763 646.022801,201.9626 C646.345064,201.766913 646.721471,201.723685 647.084156,201.671579 C648.337608,201.500208 649.590689,201.324977 650.844512,201.155536 C651.398924,199.957097 651.957415,198.760975 652.512197,197.562922 C652.611583,197.369937 652.663502,197.153793 652.782172,196.970843" transform="translate(-645 -196)"/>
</svg>
