<svg xmlns="http://www.w3.org/2000/svg" width="22" height="28" viewBox="0 0 22 28">
  <g fill="#818181" fill-rule="evenodd" transform="translate(.604)">
    <path d="M20.9963359,5.66721094 C20.9944766,5.49899219 20.9293984,5.33416406 20.80575,5.21046094 L15.7873516,0.192007812 C15.7871328,0.191789062 15.7869688,0.191734375 15.78675,0.191570312 C15.6682422,0.073171875 15.5045078,0 15.3237656,0 L1.38239063,0 C0.621304688,0 0.0021875,0.6190625 0.0021875,1.38014844 L0.0021875,26.6197969 C0.0021875,27.3808281 0.62125,27.9999453 1.38233594,27.9999453 L19.6175547,27.9999453 C20.3785859,27.9999453 20.9977031,27.3808828 20.9977031,26.6197969 L20.9977031,5.67399219 C20.9978125,5.67158594 20.9965547,5.6695625 20.9963359,5.66721094 Z M15.9793594,2.23841406 L18.7593438,5.01839844 L16.048375,5.01839844 C16.0103672,5.01839844 15.9793594,4.98739062 15.9793594,4.94938281 L15.9793594,2.23841406 Z M19.6865703,26.6198516 C19.6865703,26.6578594 19.6556172,26.6888125 19.6176094,26.6888125 L1.38239063,26.6888125 C1.34438281,26.6888125 1.31342969,26.6578594 1.31342969,26.6198516 L1.31342969,1.38014844 C1.31342969,1.34214062 1.34438281,1.3111875 1.38239063,1.3111875 L14.6681719,1.3111875 L14.6681719,4.94938281 C14.6681719,5.71041406 15.2873438,6.32964062 16.0484297,6.32964062 L19.686625,6.32964062 L19.686625,26.6198516 L19.6865703,26.6198516 Z"/>
    <path d="M16.3016875 8.96951562L4.6983125 8.96951562C4.33628125 8.96951562 4.04271875 9.26302344 4.04271875 9.62510937 4.04271875 9.98714062 4.33628125 10.2807031 4.6983125 10.2807031L16.3016328 10.2807031C16.6636641 10.2807031 16.9572266 9.98714062 16.9572266 9.62510937 16.9572812 9.26302344 16.6636641 8.96951562 16.3016875 8.96951562zM16.3016875 12.9255547L4.6983125 12.9255547C4.33628125 12.9255547 4.04271875 13.2191172 4.04271875 13.5811484 4.04271875 13.9431797 4.33628125 14.2367422 4.6983125 14.2367422L16.3016328 14.2367422C16.6636641 14.2367422 16.9572266 13.9431797 16.9572266 13.5811484 16.9572812 13.2191172 16.6636641 12.9255547 16.3016875 12.9255547zM16.3016875 16.8815391L4.6983125 16.8815391C4.33628125 16.8815391 4.04271875 17.1751016 4.04271875 17.5371328 4.04271875 17.8992187 4.33628125 18.1927266 4.6983125 18.1927266L16.3016328 18.1927266C16.6636641 18.1927266 16.9572266 17.8992187 16.9572266 17.5371328 16.9572812 17.1751562 16.6636641 16.8815391 16.3016875 16.8815391zM10.5 20.8376328L4.6983125 20.8376328C4.33628125 20.8376328 4.04271875 21.1311953 4.04271875 21.4932266 4.04271875 21.8553125 4.33628125 22.1488203 4.6983125 22.1488203L10.5 22.1488203C10.8620312 22.1488203 11.1555937 21.8553125 11.1555937 21.4932266 11.1555937 21.1311406 10.8620312 20.8376328 10.5 20.8376328z"/>
  </g>
</svg>
