<svg xmlns="http://www.w3.org/2000/svg" width="37" height="37" viewBox="0 0 37 37">
  <path fill="#818181" fill-rule="evenodd" d="M276.078073,406.448484 C273.194922,406.448484 271.339085,405.562453 271.177214,405.222381 C271.177924,404.52094 271.177924,403.808849 271.177924,403.216032 C271.193543,403.223132 271.212002,403.228101 271.227621,403.235201 C271.374583,403.296968 271.527934,403.356604 271.690515,403.410561 C271.699035,403.414111 271.707554,403.416951 271.716784,403.419791 C271.883625,403.473748 272.059695,403.522735 272.239315,403.567463 C272.298242,403.582372 272.358589,403.595861 272.418935,403.60864 C272.550278,403.639169 272.682331,403.668277 272.817933,403.693836 C272.88325,403.707325 272.948566,403.718684 273.014592,403.730754 C273.163684,403.757732 273.313486,403.780451 273.464708,403.80246 C273.512275,403.809559 273.559842,403.817369 273.60741,403.823759 C273.805489,403.850737 274.003568,403.874166 274.200227,403.893335 C274.249924,403.898305 274.298201,403.901854 274.347899,403.906824 C274.49912,403.919603 274.648922,403.932383 274.797304,403.941612 C274.86191,403.946582 274.924387,403.950132 274.987573,403.953681 C275.124596,403.961491 275.258778,403.967881 275.390831,403.97285 C275.446918,403.97427 275.502295,403.97711 275.556962,403.97853 C275.736582,403.9835 275.911942,403.98705 276.077363,403.98705 C276.242074,403.98705 276.417435,403.9835 276.597055,403.97853 C276.653142,403.97711 276.709228,403.97427 276.766025,403.97285 C276.897368,403.967881 277.030131,403.961491 277.167153,403.953681 C277.23105,403.950132 277.294236,403.946582 277.359553,403.941612 C277.507224,403.932383 277.657736,403.919603 277.808958,403.906114 C277.857945,403.901144 277.906222,403.897595 277.95521,403.892625 C278.152579,403.872746 278.350658,403.850027 278.548737,403.823049 C278.597014,403.816659 278.644582,403.808139 278.693569,403.80104 C278.844081,403.780451 278.993882,403.755602 279.141554,403.730044 C279.209,403.717974 279.273607,403.705195 279.339633,403.692416 C279.474526,403.666857 279.607998,403.638459 279.739341,403.607931 C279.799688,403.593731 279.860035,403.580242 279.918251,403.565333 C280.102131,403.519185 280.281041,403.470198 280.450722,403.414821 C280.459241,403.411981 280.467051,403.408432 280.474861,403.406302 C280.635312,403.353055 280.786533,403.294838 280.930655,403.233781 C280.947694,403.225972 280.968283,403.219582 280.985322,403.212482 L280.988872,405.173394 C280.831261,405.556063 278.971164,406.448484 276.078073,406.448484 L276.078073,406.448484 Z M276.761056,410.119691 C276.536708,410.128211 276.31946,410.13957 276.077363,410.13957 C274.727018,410.13957 273.393001,409.931552 272.374208,409.565922 C272.370658,409.559532 272.366398,409.553852 272.362848,409.547463 C272.290432,409.42038 272.213757,409.296847 272.130691,409.177573 C272.118622,409.159824 272.104423,409.143495 272.091643,409.125746 C272.014968,409.017832 271.936162,408.912048 271.850967,408.811233 C271.824698,408.781415 271.79772,408.753727 271.770741,408.723908 C271.695485,408.638003 271.619519,408.554228 271.538584,408.473292 C271.496696,408.432824 271.451969,408.395906 271.409371,408.356148 C271.338375,408.290832 271.268089,408.225516 271.194253,408.164459 C271.186443,408.158069 271.180764,408.15168 271.172954,408.146 C271.172954,407.905323 271.173664,407.370723 271.174374,406.6991 C271.205612,406.715429 271.24324,406.729628 271.275188,406.745247 C271.376003,406.794945 271.478947,406.843932 271.587571,406.890079 C271.642948,406.913508 271.699745,406.935517 271.757252,406.958236 C271.864456,407.000123 271.97308,407.039881 272.085964,407.078219 C272.1456,407.098808 272.203817,407.117977 272.264164,407.137146 C272.394087,407.178323 272.526849,407.215241 272.663162,407.251449 C272.710729,407.264939 272.756877,407.279138 272.805154,407.290497 C272.991164,407.337355 273.180723,407.380662 273.375962,407.41829 C273.41643,407.42681 273.458318,407.432489 273.499496,407.440299 C273.656397,407.470827 273.814008,407.497096 273.975169,407.521235 C274.043326,407.531884 274.112902,407.540403 274.181768,407.549633 C274.32021,407.568092 274.458653,407.584421 274.599225,407.59933 C274.672351,407.60714 274.746187,407.613529 274.819313,407.620629 C274.964145,407.633408 275.109687,407.643348 275.255229,407.651867 C275.320545,407.656127 275.385152,407.661097 275.450468,407.663937 C275.659906,407.673166 275.869345,407.679556 276.077363,407.679556 C276.286092,407.679556 276.49482,407.673166 276.704259,407.663937 C276.770995,407.661097 276.837021,407.656127 276.903048,407.651867 C277.04717,407.643348 277.191292,407.633408 277.334704,407.621339 C277.40996,407.614239 277.485216,407.60714 277.560471,407.59933 C277.698204,407.585131 277.834516,407.568802 277.970829,407.550343 C278.041825,407.540403 278.113531,407.531884 278.183817,407.521235 C278.342138,407.497806 278.49762,407.470827 278.651681,407.442429 C278.694989,407.433909 278.739006,407.42681 278.783024,407.41829 C278.976133,407.379952 279.165693,407.337355 279.350283,407.291207 C279.40211,407.278428 279.451097,407.263519 279.501504,407.25003 C279.634977,407.213822 279.76561,407.177614 279.891983,407.137146 C279.953749,407.117977 280.012676,407.097388 280.073023,407.076799 C280.185197,407.039171 280.294531,406.998703 280.400315,406.957526 C280.457822,406.935517 280.514618,406.912798 280.569995,406.889369 C280.680039,406.842512 280.785113,406.793525 280.885928,406.743117 C280.917876,406.727498 280.954084,406.713299 280.984612,406.69768 L280.988162,408.86519 C280.84404,409.215201 279.260118,409.994738 276.761056,410.119691 L276.761056,410.119691 Z M276.078073,413.829236 C274.914447,413.829236 273.756501,413.674465 272.805154,413.39545 C272.805864,413.39403 272.805864,413.39261 272.805864,413.391901 C272.864791,413.192402 272.908808,412.987223 272.942886,412.777784 C272.951406,412.728087 272.959215,412.6791 272.965605,412.628693 C272.993294,412.416414 273.013172,412.203426 273.013172,411.984758 C273.013172,411.825017 273.004653,411.666696 272.989034,411.509794 C272.983354,411.453707 272.973415,411.399041 272.966315,411.342954 C272.955666,411.263438 272.948566,411.183212 272.934367,411.105117 C273.864415,411.277637 274.944266,411.369222 276.078073,411.369222 C277.543432,411.369222 279.661245,411.181792 280.984612,410.594655 L280.988162,412.555567 C280.831261,412.936816 278.971164,413.829236 276.078073,413.829236 L276.078073,413.829236 Z M271.767191,412.373817 C271.765771,412.392276 271.760802,412.410735 271.758672,412.429904 C271.745182,412.541367 271.728853,412.652121 271.704715,412.760035 C271.701875,412.772815 271.698325,412.784884 271.695485,412.796953 C271.669217,412.914097 271.637978,413.029111 271.60035,413.144124 C271.598221,413.148384 271.596091,413.153354 271.594671,413.158323 C271.554203,413.278307 271.507346,413.39545 271.454808,413.511174 C270.872641,414.785554 269.593291,415.675134 268.108763,415.675134 C266.095314,415.675134 264.456725,414.042225 264.433296,412.028066 C264.433296,411.980498 264.434006,411.932931 264.436136,411.884654 C264.438266,411.817207 264.441106,411.749761 264.446785,411.682315 C264.451045,411.626228 264.457435,411.570851 264.464534,411.514054 C264.471634,411.457257 264.480153,411.40046 264.490093,411.345083 C264.517781,411.184632 264.553279,411.027021 264.601557,410.87296 C264.606526,410.85734 264.614336,410.841721 264.619306,410.825392 C264.671133,410.671331 264.732899,410.520109 264.804605,410.374567 C264.810995,410.360368 264.818095,410.346169 264.825194,410.332679 C265.155326,409.682355 265.677147,409.132136 266.309012,408.770056 C266.311142,408.768636 266.313272,408.766506 266.316112,408.765796 C266.458814,408.68415 266.610036,408.615284 266.763387,408.554228 C266.803145,408.537898 266.843613,408.522989 266.883371,408.50879 C267.019683,408.460513 267.158126,408.417915 267.300828,408.386677 C267.320707,408.382417 267.339166,408.376027 267.358335,408.371768 C267.535825,408.33556 267.713315,408.316391 267.890805,408.305741 C267.924173,408.303611 267.958251,408.300772 267.99233,408.300772 C268.17337,408.295092 268.3537,408.299352 268.53119,408.32136 C268.541839,408.32207 268.551069,408.32349 268.561008,408.32562 C268.749148,408.349049 268.934448,408.386677 269.116907,408.439214 C269.119747,408.440634 269.122587,408.440634 269.125427,408.441344 C269.313567,408.496011 269.498156,408.567007 269.678486,408.652202 C269.843907,408.731008 270.005068,408.819043 270.15558,408.920567 L270.180429,408.937606 C270.201728,408.952516 270.220897,408.968845 270.242195,408.983754 C270.34372,409.05688 270.440984,409.134266 270.535409,409.218041 C270.557418,409.23721 270.580137,409.257799 270.602145,409.278388 C270.69586,409.365713 270.785315,409.457298 270.869091,409.552432 C270.87761,409.563082 270.88613,409.570891 270.895359,409.581541 C271.089889,409.809438 271.258149,410.060764 271.393042,410.330549 C271.42428,410.391606 271.455518,410.454083 271.482497,410.517269 C271.529354,410.625183 271.569822,410.733807 271.60603,410.843851 C271.60887,410.852371 271.61242,410.86018 271.61455,410.86799 C271.650048,410.978744 271.679156,411.092337 271.703295,411.205931 C271.705425,411.215161 271.708264,411.22368 271.710394,411.23291 C271.733823,411.345793 271.750862,411.460097 271.763641,411.575111 C271.765061,411.58576 271.767191,411.59499 271.768611,411.605639 C271.78139,411.730592 271.78849,411.857675 271.78849,411.984758 C271.78849,412.114681 271.78068,412.243894 271.767191,412.373817 L271.767191,412.373817 Z M264.189779,409.039131 C264.145052,409.099477 264.097485,409.156274 264.055597,409.218041 C263.947683,409.376362 263.851128,409.542493 263.762383,409.712884 C263.728305,409.77891 263.697067,409.846356 263.665118,409.915222 C263.594832,410.065734 263.532356,410.219796 263.478399,410.378827 C263.46207,410.424264 263.442191,410.468282 263.428701,410.514429 C263.365515,410.716768 263.319367,410.925497 263.282449,411.137065 C263.27748,411.164753 263.26754,411.190312 263.263281,411.217291 C263.258311,411.250659 263.258311,411.286157 263.254051,411.319525 C263.234882,411.463647 263.222813,411.610609 263.215713,411.758991 C263.213583,411.811528 263.208614,411.863355 263.207904,411.917312 C263.207904,411.940031 263.204354,411.962039 263.204354,411.985468 C263.204354,412.082733 263.213583,412.177868 263.218553,412.274422 C263.242692,412.805473 263.329307,413.340073 263.489048,413.829236 L252.357572,413.829236 C252.21629,413.829236 252.075008,413.824977 251.935856,413.815747 C250.731762,413.734102 249.458093,412.481021 248.349134,410.287952 C246.06235,405.762662 247.352349,400.151841 251.398415,396.959148 L255.737696,393.787043 C256.449787,393.226174 257.340787,392.916631 258.246697,392.916631 L263.014084,392.916631 C264.00519,392.916631 264.904,393.447681 265.512436,393.914836 L269.927683,396.925069 C271.024572,397.769213 271.938292,398.800786 272.652512,400.00133 C271.876525,400.161781 271.126097,400.406717 270.610665,400.765247 C270.596466,400.775897 270.582267,400.785126 270.568067,400.795066 C270.490682,400.851863 270.418976,400.912209 270.354369,400.973976 C270.326681,401.000244 270.302542,401.027933 270.276983,401.055621 C270.228706,401.108868 270.181849,401.162825 270.144221,401.221042 C270.112273,401.2679 270.088844,401.319727 270.063995,401.370134 C270.042696,401.414862 270.017138,401.458879 270.001519,401.507156 C269.96815,401.610811 269.947562,401.720145 269.947562,401.835158 L269.947562,407.4261 C269.740253,407.341614 269.526555,407.273458 269.307177,407.218081 C269.278069,407.210982 269.24967,407.203172 269.220562,407.196072 C269.006154,407.146375 268.787486,407.107327 268.563848,407.086739 C268.538289,407.084609 268.513441,407.085319 268.488592,407.083189 C268.362929,407.073249 268.236556,407.06473 268.108053,407.06473 C268.040607,407.06473 267.976,407.071829 267.909264,407.073959 C267.856727,407.076089 267.8049,407.078219 267.752363,407.081769 C267.534405,407.098098 267.318577,407.122947 267.109138,407.166964 C267.104879,407.167674 267.101329,407.167674 267.097069,407.169094 C267.08003,407.171934 267.065121,407.179033 267.048082,407.183293 C266.856392,407.225181 266.669673,407.281268 266.486503,407.346584 C266.420476,407.370013 266.35445,407.393442 266.289134,407.419 C266.107384,407.492126 265.929183,407.573062 265.758793,407.667486 C265.694186,407.702275 265.63384,407.743452 265.571363,407.78108 C265.45209,407.854916 265.335656,407.931592 265.223482,408.013947 C265.156746,408.062935 265.09001,408.110502 265.026823,408.162329 C264.882701,408.279473 264.744969,408.403716 264.615046,408.536479 C264.558249,408.594695 264.506422,408.656462 264.452465,408.716809 C264.36017,408.819753 264.272845,408.927667 264.189779,409.039131 L264.189779,409.039131 Z M273.193502,401.152176 C273.312776,401.130167 273.439859,401.109578 273.571202,401.090409 C274.261993,400.985335 275.088388,400.913629 276.075233,400.913629 C278.971874,400.912919 280.592004,401.512126 280.935625,401.829479 C280.922846,401.842968 280.912196,401.855747 280.894447,401.869236 C280.870309,401.888405 280.84191,401.908994 280.809252,401.930293 C280.768784,401.955142 280.719797,401.98283 280.66655,402.009809 C280.623242,402.031818 280.577805,402.055246 280.525268,402.077965 C280.461371,402.106363 280.385406,402.134762 280.30731,402.16458 C280.244833,402.188009 280.181647,402.211438 280.110651,402.235576 C280.021196,402.265395 279.918251,402.294503 279.814597,402.323611 C279.733661,402.34633 279.653436,402.370469 279.564691,402.391768 C279.447547,402.420876 279.316914,402.447145 279.186282,402.474123 C279.087597,402.494002 278.993882,402.514591 278.886678,402.53376 C278.739716,402.560028 278.575715,402.582037 278.413134,402.604046 C278.30238,402.618955 278.198726,402.636704 278.080163,402.650193 C277.887053,402.672202 277.674065,402.687821 277.462497,402.70344 C277.354583,402.71125 277.256608,402.721899 277.143724,402.728999 C276.808623,402.747458 276.454352,402.758817 276.075943,402.758817 C275.698244,402.758817 275.343974,402.747458 275.008872,402.728999 C274.895989,402.722609 274.798014,402.71196 274.6901,402.70344 C274.477822,402.687111 274.265543,402.671492 274.072434,402.650193 C273.953871,402.636704 273.850216,402.618955 273.739462,402.604046 C273.576881,402.582037 273.41288,402.560028 273.265209,402.53376 C273.158714,402.514591 273.065,402.494002 272.966315,402.474123 C272.835682,402.446435 272.704339,402.420166 272.587906,402.391768 C272.498451,402.370469 272.419645,402.34704 272.338,402.323611 C272.234345,402.294503 272.132111,402.265395 272.041946,402.235576 C271.97095,402.212148 271.907763,402.188009 271.845287,402.16458 C271.767191,402.134762 271.691225,402.106363 271.626619,402.077965 C271.574792,402.055246 271.529354,402.031818 271.486047,402.009809 C271.4328,401.98212 271.383812,401.955142 271.343345,401.930293 C271.310686,401.908994 271.281578,401.889115 271.258149,401.869236 C271.24111,401.857167 271.231881,401.845098 271.219811,401.832319 C271.226911,401.826639 271.231881,401.820249 271.2404,401.81315 C271.263829,401.794691 271.295777,401.773392 271.327725,401.752093 C271.377423,401.720145 271.439189,401.685357 271.512315,401.648439 C271.552073,401.62785 271.591121,401.608681 271.637978,401.588092 C271.686256,401.566083 271.742343,401.545494 271.79772,401.522776 C271.864456,401.497217 271.936872,401.470948 272.012838,401.44539 C272.068215,401.426221 272.121462,401.407762 272.183228,401.389303 C272.320251,401.347415 272.470762,401.306238 272.635473,401.26648 C272.711439,401.248021 272.799474,401.230982 272.88254,401.213943 C272.982644,401.192644 273.084878,401.171345 273.193502,401.152176 L273.193502,401.152176 Z M282.207875,401.835868 C282.207875,400.136222 278.354918,399.682557 276.078073,399.682557 C275.446208,399.682557 274.69294,399.719475 273.934702,399.80538 C273.108307,398.288904 272.019937,396.984706 270.645453,395.928284 L266.230207,392.918051 C265.500367,392.355052 264.349521,391.686269 263.014794,391.686269 L258.247407,391.686269 C257.067453,391.686269 255.908087,392.088816 254.997917,392.806587 L250.659346,395.978692 C246.136896,399.546955 244.705615,405.79816 247.256504,410.845271 C248.184423,412.68052 249.734977,414.899147 251.85492,415.043269 C252.021051,415.054629 252.188602,415.060308 252.357572,415.060308 L264.286334,415.060308 C265.186564,416.183466 266.563888,416.905497 268.108763,416.905497 C269.885085,416.905497 271.439899,415.949179 272.300372,414.526418 C273.395841,414.867199 274.739087,415.060308 276.078073,415.060308 C279.025831,415.060308 282.207875,414.11961 282.207875,412.600294 L282.207875,409.217331 L282.159598,409.217331 C282.189416,409.117226 282.207875,409.015702 282.207875,408.909918 L282.207875,401.835868 Z M258.913351,395.991471 C254.983718,395.991471 250.331344,400.993145 250.331344,405.218832 C250.331344,405.558193 250.606099,405.833658 250.944041,405.833658 C251.282692,405.833658 251.557447,405.558193 251.557447,405.218832 C251.557447,401.705946 255.682319,397.221833 258.913351,397.221833 C259.252002,397.221833 259.526757,396.946368 259.526757,396.607007 C259.526757,396.267646 259.252002,395.991471 258.913351,395.991471 L258.913351,395.991471 Z M265.043862,388.610718 C265.043862,388.271357 264.769107,387.995182 264.430456,387.995182 C264.316862,387.995182 264.215338,388.03565 264.124463,388.089607 C264.032878,388.03494 263.931354,387.995182 263.81776,387.995182 L256.461146,387.995182 C256.123205,387.995182 255.84845,388.271357 255.84845,388.610718 C255.84845,388.95079 256.123205,389.225544 256.461146,389.225544 L263.81776,389.225544 L263.81776,389.84108 L257.074552,389.84108 C256.735901,389.84108 256.461146,390.115835 256.461146,390.455906 C256.461146,390.795978 256.735901,391.070733 257.074552,391.070733 L264.384309,391.070733 C264.933818,391.530077 265.611121,391.792053 266.333861,391.792053 C267.151736,391.792053 267.922043,391.47186 268.501371,390.891112 C268.740628,390.650436 268.740628,390.262087 268.501371,390.02141 C268.261405,389.780734 267.873766,389.780734 267.634509,390.02141 C266.941588,390.715752 265.741044,390.717172 265.043862,390.02993 L265.043862,388.610718 Z M254.624477,381.921467 C254.646486,381.805744 254.723872,381.600565 254.987977,381.51253 C255.558786,381.32368 256.089836,381.229256 256.581839,381.229256 C257.337948,381.229256 257.998921,381.453603 258.55624,381.900169 C259.227153,382.440449 260.165012,382.439029 260.835215,381.900169 C261.755324,381.162519 262.955158,381.032597 264.402768,381.51253 C264.668293,381.600565 264.744259,381.807164 264.766268,381.921467 C264.807445,382.135166 264.72935,382.349574 264.556119,382.496536 C263.619681,383.292402 262.782637,385.31082 262.625026,385.768035 C262.54693,385.996643 262.339622,386.150704 262.111014,386.150704 L257.555906,386.150704 C257.326588,386.150704 257.11999,385.996643 257.041184,385.768035 C256.785598,385.025416 255.648241,383.188748 254.835336,382.496536 C254.661395,382.348864 254.58259,382.133746 254.624477,381.921467 L254.624477,381.921467 Z M255.881818,386.168453 C256.131014,386.893323 256.803347,387.380356 257.555196,387.380356 L262.110304,387.380356 C262.862153,387.380356 263.534486,386.893323 263.783682,386.168453 C264.021519,385.476241 264.769107,383.927107 265.349145,383.434394 C265.857477,383.002028 266.096024,382.332535 265.970361,381.685761 C265.848248,381.051056 265.405942,380.549113 264.788986,380.344645 C262.948768,379.732658 261.317278,379.938547 260.069877,380.939592 C259.846239,381.118502 259.545216,381.118502 259.321578,380.939592 C258.074177,379.938547 256.443397,379.732658 254.602469,380.346064 C253.985513,380.549823 253.542497,381.051056 253.420384,381.68647 C253.295431,382.333245 253.533978,383.002738 254.0416,383.434394 C254.698313,383.992423 255.703618,385.652312 255.881818,386.168453 L255.881818,386.168453 Z" transform="translate(-246 -380)"/>
</svg>
