<?xml version="1.0" encoding="UTF-8"?>
<svg width="422px" height="199px" viewBox="0 0 422 199" version="1.1" xmlns="http://www.w3.org/2000/svg" xmlns:xlink="http://www.w3.org/1999/xlink">
    <!-- Generator: Sketch 42 (36781) - http://www.bohemiancoding.com/sketch -->
    <title>Group 2</title>
    <desc>Created with Sketch.</desc>
    <defs></defs>
    <g id="Page-1" stroke="none" stroke-width="1" fill="none" fill-rule="evenodd">
        <g id="рейтингкомпаний" transform="translate(-942.000000, -126.000000)" fill="#0E86D6">
            <g id="Fill-1-Copy-4" transform="translate(205.000000, 97.000000)">
                <g id="Group-2" transform="translate(737.000000, 29.000000)">
                    <path d="M265.15236,15.6333542 C272.780177,7.17128262 284.739124,3.20508566 295.508654,5.77323319 C306.670172,8.02240215 316.019659,17.0953395 319.210624,28.3631315 C324.821467,52.5905795 330.64166,76.7716849 336.377712,100.967349 C354.482607,107.858856 372.813686,114.272856 391.009847,120.969635 C396.829847,123.212461 403.042835,124.779642 408.127431,128.605119 C415.264751,133.742889 420.107636,142.078534 421.255579,151.049816 C422.69703,161.426643 418.980457,172.459042 411.649815,179.816317 C409.361337,182.282237 406.465172,183.970121 403.902729,186.111772 C385.230072,198.903046 366.534189,211.656939 347.888085,224.499278 C346.99179,245.053086 346.162428,265.614632 345.315172,286.172375 C344.920182,291.902278 345.362229,297.771166 343.611997,303.336288 C341.001337,312.890744 334.074363,321.105975 325.292107,325.085553 C316.011235,329.445798 304.847941,328.87682 296.169888,323.625684 C292.146371,321.466234 289.297601,317.739652 285.674464,315.016437 C269.905038,301.976938 254.08003,289.022954 238.35959,275.92898 C216.180619,281.869113 194.074181,288.142608 171.915164,294.164846 C164.066794,296.947861 155.251972,296.475768 147.830414,292.821888 C139.541147,288.821355 133.196439,280.89322 130.835671,271.703076 C128.468679,262.952839 129.975941,253.280645 134.438212,245.398032 C142.653515,225.050281 150.841633,204.683774 159.021147,184.328416 C154.359437,177.017561 150.057992,169.478315 145.402247,162.168728 C138.068859,150.591441 131.121548,138.752317 123.78948,127.168822 C117.554412,119.575449 114.635148,109.053209 116.61263,99.1046193 C118.652954,86.8659047 127.902983,76.3153884 139.364053,72.8143685 C145.216574,70.7685978 151.41873,71.3601741 157.430535,71.7620505 C178.177756,73.291033 198.932208,74.7566656 219.678796,76.3179569 C232.693639,58.9369847 245.766178,41.6072084 258.785666,24.2337123 C261.044053,21.4694053 262.618109,18.1703185 265.15236,15.6333542" id="Fill-1-Copy-4"></path>
                    <path d="M382.057604,15.2582059 C382.396849,13.7924963 383.524171,12.5687676 384.932459,12.1758978 C386.365599,11.7210905 388.026324,12.1704313 389.116265,13.2675573 C391.315404,15.7065843 393.535756,18.1268557 395.747322,20.5541956 C398.279627,20.1910437 400.807486,19.7582595 403.337865,19.3667738 C404.15366,19.2532091 404.971588,19.0364482 405.803768,19.1527603 C406.957052,19.289221 408.050066,19.9419275 408.757013,20.9046076 C409.587845,22.0108355 409.864903,23.5230091 409.48925,24.8420899 C409.382806,25.2734143 409.156364,25.6537818 408.997517,26.0651933 C407.659769,28.7380352 406.316946,31.4080467 404.985534,34.0850866 C406.197911,36.5164128 407.418514,38.9443475 408.636807,41.3729886 C408.958027,42.0600745 409.384822,42.7096243 409.538963,43.4644437 C409.849131,44.7351134 409.575029,46.1274436 408.815468,47.1493393 C408.022689,48.2471242 406.696913,48.8961056 405.358418,48.8451922 C404.755454,48.853372 404.18784,48.60534 403.595026,48.5227724 C400.938857,48.0263158 398.281743,47.5432947 395.627745,47.0374102 C393.446397,49.1434341 391.294768,51.2833173 389.120982,53.3975468 C388.392677,54.2214514 387.34435,54.7312688 386.253239,54.7843933 C385.039715,54.8530323 383.799331,54.3435426 382.938293,53.4332319 C382.104699,52.5741285 381.659552,51.360502 381.670278,50.1643843 C381.31643,47.2882791 380.958243,44.4117481 380.599775,41.5370555 C379.593296,40.991112 378.613805,40.3957245 377.608096,39.8495454 C376.019895,38.9818798 374.459522,38.0592549 372.871075,37.1907877 C371.664788,36.7129433 370.65396,35.684533 370.245427,34.4088787 C369.697534,32.8646939 370.090436,31.0539138 371.190035,29.9157877 C371.735021,29.3048125 372.489237,28.9760638 373.209324,28.6375915 C375.703495,27.4859064 378.194445,26.3264414 380.690612,25.1785284 C381.081046,22.3378063 381.481422,19.4993035 381.872871,16.6591475 C381.956735,16.1952862 381.927323,15.7134707 382.057604,15.2582059" id="Fill-1-Copy-5"></path>
                    <path d="M60.419199,0.799561474 C66.2002681,-1.03506199 72.899378,0.777510279 77.2960334,5.20314874 C86.1670244,15.041811 95.1235848,24.8048161 104.044703,34.596334 C114.259636,33.1314349 124.456631,31.3856497 134.663796,29.8064562 C137.954586,29.3483533 141.253982,28.4739732 144.610872,28.9431582 C149.263043,29.4936198 153.672094,32.1265383 156.523809,36.0098424 C159.87526,40.4721968 160.992867,46.5720739 159.47754,51.8930445 C159.048163,53.6329413 158.13473,55.1672854 157.493967,56.8268565 C152.097697,67.6086923 146.680951,78.3791107 141.310239,89.1778805 C146.200783,98.9854787 151.12451,108.779396 156.038918,118.576163 C157.334669,121.347763 159.056293,123.967947 159.678074,127.012773 C160.929245,132.138461 159.82356,137.754908 156.759609,141.877079 C153.56166,146.305375 148.213682,148.923267 142.814398,148.717891 C140.382131,148.750887 138.092464,147.750364 135.701141,147.417298 C124.986562,145.414668 114.268173,143.466235 103.562348,141.425574 C94.7631231,149.920953 86.0837838,158.552915 77.3150596,167.081393 C74.377192,170.404898 70.1484005,172.461424 65.7470239,172.67572 C60.8518523,172.952599 55.8483357,170.897396 52.375037,167.225342 C49.0124471,163.75985 47.2167917,158.864266 47.2600588,154.03931 C45.8326935,142.437541 44.3878186,130.834054 42.9418142,119.237984 C38.8818313,117.035731 34.9307146,114.634029 30.8738382,112.430826 C24.4672774,108.930796 18.1729713,105.209068 11.765422,101.705804 C6.89944199,99.7782527 2.82191609,95.6298027 1.1739575,90.4840081 C-1.03615946,84.2550029 0.548748229,76.9505927 4.98436238,72.3595658 C7.18275077,69.8949852 10.225145,68.5688631 13.1298629,67.2035179 C23.1909682,62.5577959 33.239082,57.8806915 43.3082362,53.2501859 C44.883188,41.7911472 46.4982423,30.3410606 48.077289,18.8843054 C48.4155856,17.01316 48.2969394,15.0695898 48.8224752,13.2331209 C50.1909386,7.3206727 54.7383816,2.38433791 60.419199,0.799561474 Z" id="Fill-1-Copy-11" opacity="0.229999989"></path>
                </g>
            </g>
        </g>
    </g>
</svg>